M48
; DRILL file {KiCad (5.1.7-0-10_14)} date Friday, December 04, 2020 at 02:04:04 PM
; FORMAT={-:-/ absolute / metric / decimal}
; #@! TF.CreationDate,2020-12-04T14:04:04+01:00
; #@! TF.GenerationSoftware,Kicad,Pcbnew,(5.1.7-0-10_14)
FMAT,2
METRIC
T1C1.000
T2C1.100
T3C1.520
T4C2.750
%
G90
G05
T1
X40.64Y-7.62
X40.64Y-10.16
X40.64Y-12.7
X40.64Y-15.24
X51.435Y-8.71
X51.435Y-11.25
X51.435Y-13.79
X51.435Y-16.33
X51.435Y-18.87
X51.435Y-21.41
X51.435Y-23.95
X51.435Y-26.49
X51.435Y-29.03
X51.435Y-31.57
X51.435Y-34.11
X51.435Y-36.65
X51.435Y-39.19
X51.435Y-41.73
X51.435Y-44.27
X51.435Y-46.81
X51.435Y-49.35
X51.435Y-51.89
X51.435Y-54.43
X51.435Y-56.97
X53.975Y-8.71
X53.975Y-11.25
X53.975Y-13.79
X53.975Y-16.33
X53.975Y-18.87
X53.975Y-21.41
X53.975Y-23.95
X53.975Y-26.49
X53.975Y-29.03
X53.975Y-31.57
X53.975Y-34.11
X53.975Y-36.65
X53.975Y-39.19
X53.975Y-41.73
X53.975Y-44.27
X53.975Y-46.81
X53.975Y-49.35
X53.975Y-51.89
X53.975Y-54.43
X53.975Y-56.97
X6.985Y-13.335
X9.525Y-13.335
X12.065Y-13.335
X14.605Y-13.335
X44.45Y-7.62
X44.45Y-10.16
X44.45Y-12.7
X44.45Y-15.24
X43.815Y-21.59
X43.815Y-24.13
X43.815Y-26.67
X43.815Y-29.21
X43.815Y-31.75
X43.815Y-34.29
X43.815Y-36.83
X43.815Y-39.37
X58.42Y-49.53
X58.42Y-52.07
X58.42Y-54.61
X58.42Y-57.15
T2
X31.115Y-21.59
X31.115Y-24.13
X31.115Y-26.67
X31.115Y-53.975
X31.115Y-56.515
X31.115Y-59.055
X31.115Y-43.18
X31.115Y-45.72
X31.115Y-48.26
X31.115Y-32.385
X31.115Y-34.925
X31.115Y-37.465
T3
X12.065Y-31.115
X12.065Y-36.195
X12.065Y-41.275
X12.065Y-46.355
X15.875Y-5.715
X20.955Y-5.715
X12.065Y-19.685
X12.065Y-24.765
X28.575Y-5.715
X33.655Y-5.715
T4
X3.705Y-3.81
X3.705Y-61.81
X52.705Y-61.81
T0
M30
