%TF.GenerationSoftware,KiCad,Pcbnew,(5.1.7-0-10_14)*%
%TF.CreationDate,2020-12-03T23:55:17+01:00*%
%TF.ProjectId,pi_hat,70695f68-6174-42e6-9b69-6361645f7063,rev?*%
%TF.SameCoordinates,PX55fe290PY310d5f8*%
%TF.FileFunction,Copper,L2,Bot*%
%TF.FilePolarity,Positive*%
%FSLAX46Y46*%
G04 Gerber Fmt 4.6, Leading zero omitted, Abs format (unit mm)*
G04 Created by KiCad (PCBNEW (5.1.7-0-10_14)) date 2020-12-03 23:55:17*
%MOMM*%
%LPD*%
G01*
G04 APERTURE LIST*
%TA.AperFunction,ComponentPad*%
%ADD10C,3.000000*%
%TD*%
%TA.AperFunction,ComponentPad*%
%ADD11R,3.000000X3.000000*%
%TD*%
%TA.AperFunction,ComponentPad*%
%ADD12O,2.000000X1.905000*%
%TD*%
%TA.AperFunction,ComponentPad*%
%ADD13R,2.000000X1.905000*%
%TD*%
%TA.AperFunction,ComponentPad*%
%ADD14O,1.700000X1.700000*%
%TD*%
%TA.AperFunction,ComponentPad*%
%ADD15R,1.700000X1.700000*%
%TD*%
%TA.AperFunction,ViaPad*%
%ADD16C,3.000000*%
%TD*%
%TA.AperFunction,ViaPad*%
%ADD17C,6.000000*%
%TD*%
%TA.AperFunction,Conductor*%
%ADD18C,0.500000*%
%TD*%
%TA.AperFunction,Conductor*%
%ADD19C,1.000000*%
%TD*%
%TA.AperFunction,Conductor*%
%ADD20C,1.500000*%
%TD*%
%TA.AperFunction,Conductor*%
%ADD21C,0.254000*%
%TD*%
%TA.AperFunction,Conductor*%
%ADD22C,0.100000*%
%TD*%
G04 APERTURE END LIST*
D10*
%TO.P,J9_W_Gnd1,2*%
%TO.N,Net-(J9_W_Gnd1-Pad2)*%
X12065000Y-19050000D03*
D11*
%TO.P,J9_W_Gnd1,1*%
%TO.N,+12V*%
X12065000Y-13970000D03*
%TD*%
D12*
%TO.P,Q4,3*%
%TO.N,GND*%
X23495000Y-27940000D03*
%TO.P,Q4,2*%
%TO.N,Net-(J9_W_Gnd1-Pad2)*%
X23495000Y-25400000D03*
D13*
%TO.P,Q4,1*%
%TO.N,/White*%
X23495000Y-22860000D03*
%TD*%
D12*
%TO.P,Q3,3*%
%TO.N,GND*%
X23495000Y-38735000D03*
%TO.P,Q3,2*%
%TO.N,Net-(J8_RGB_Gnd1-Pad2)*%
X23495000Y-36195000D03*
D13*
%TO.P,Q3,1*%
%TO.N,/Red*%
X23495000Y-33655000D03*
%TD*%
D12*
%TO.P,Q2,3*%
%TO.N,GND*%
X23495000Y-49530000D03*
%TO.P,Q2,2*%
%TO.N,Net-(J8_RGB_Gnd1-Pad3)*%
X23495000Y-46990000D03*
D13*
%TO.P,Q2,1*%
%TO.N,/Green*%
X23495000Y-44450000D03*
%TD*%
D12*
%TO.P,Q1,3*%
%TO.N,GND*%
X23495000Y-60325000D03*
%TO.P,Q1,2*%
%TO.N,Net-(J8_RGB_Gnd1-Pad4)*%
X23495000Y-57785000D03*
D13*
%TO.P,Q1,1*%
%TO.N,/Blue*%
X23495000Y-55245000D03*
%TD*%
D10*
%TO.P,J8_RGB_Gnd1,4*%
%TO.N,Net-(J8_RGB_Gnd1-Pad4)*%
X12065000Y-46355000D03*
D11*
%TO.P,J8_RGB_Gnd1,1*%
%TO.N,+12V*%
X12065000Y-31115000D03*
D10*
%TO.P,J8_RGB_Gnd1,3*%
%TO.N,Net-(J8_RGB_Gnd1-Pad3)*%
X12065000Y-41275000D03*
%TO.P,J8_RGB_Gnd1,2*%
%TO.N,Net-(J8_RGB_Gnd1-Pad2)*%
X12065000Y-36195000D03*
%TD*%
D14*
%TO.P,J7_I2C1,4*%
%TO.N,Net-(J2-Pad5)*%
X40640000Y-15240000D03*
%TO.P,J7_I2C1,3*%
%TO.N,Net-(J2-Pad3)*%
X40640000Y-12700000D03*
%TO.P,J7_I2C1,2*%
%TO.N,GND*%
X40640000Y-10160000D03*
D15*
%TO.P,J7_I2C1,1*%
%TO.N,+3V3*%
X40640000Y-7620000D03*
%TD*%
D14*
%TO.P,J6_Fan1,4*%
%TO.N,Net-(J2-Pad12)*%
X29210000Y-15240000D03*
%TO.P,J6_Fan1,3*%
%TO.N,Net-(J6_Fan1-Pad3)*%
X26670000Y-15240000D03*
%TO.P,J6_Fan1,2*%
%TO.N,+12V*%
X24130000Y-15240000D03*
D15*
%TO.P,J6_Fan1,1*%
%TO.N,GND*%
X21590000Y-15240000D03*
%TD*%
D14*
%TO.P,J5_I2C1,4*%
%TO.N,Net-(J2-Pad5)*%
X44450000Y-15240000D03*
%TO.P,J5_I2C1,3*%
%TO.N,Net-(J2-Pad3)*%
X44450000Y-12700000D03*
%TO.P,J5_I2C1,2*%
%TO.N,GND*%
X44450000Y-10160000D03*
D15*
%TO.P,J5_I2C1,1*%
%TO.N,+3V3*%
X44450000Y-7620000D03*
%TD*%
D14*
%TO.P,J4_GPIO1,4*%
%TO.N,Net-(J2-Pad40)*%
X58420000Y-57150000D03*
%TO.P,J4_GPIO1,3*%
%TO.N,Net-(J2-Pad38)*%
X58420000Y-54610000D03*
%TO.P,J4_GPIO1,2*%
%TO.N,Net-(J2-Pad36)*%
X58420000Y-52070000D03*
D15*
%TO.P,J4_GPIO1,1*%
%TO.N,Net-(J2-Pad32)*%
X58420000Y-49530000D03*
%TD*%
D10*
%TO.P,J3_5Vin1,2*%
%TO.N,GND*%
X28575000Y-4445000D03*
D11*
%TO.P,J3_5Vin1,1*%
%TO.N,+5V*%
X33655000Y-4445000D03*
%TD*%
D14*
%TO.P,J1_ButtonPad1,8*%
%TO.N,Net-(J1_ButtonPad1-Pad8)*%
X43815000Y-39370000D03*
%TO.P,J1_ButtonPad1,7*%
%TO.N,Net-(J1_ButtonPad1-Pad7)*%
X43815000Y-36830000D03*
%TO.P,J1_ButtonPad1,6*%
%TO.N,Net-(J1_ButtonPad1-Pad6)*%
X43815000Y-34290000D03*
%TO.P,J1_ButtonPad1,5*%
%TO.N,Net-(J1_ButtonPad1-Pad5)*%
X43815000Y-31750000D03*
%TO.P,J1_ButtonPad1,4*%
%TO.N,Net-(J1_ButtonPad1-Pad4)*%
X43815000Y-29210000D03*
%TO.P,J1_ButtonPad1,3*%
%TO.N,Net-(J1_ButtonPad1-Pad3)*%
X43815000Y-26670000D03*
%TO.P,J1_ButtonPad1,2*%
%TO.N,Net-(J1_ButtonPad1-Pad2)*%
X43815000Y-24130000D03*
D15*
%TO.P,J1_ButtonPad1,1*%
%TO.N,Net-(J1_ButtonPad1-Pad1)*%
X43815000Y-21590000D03*
%TD*%
D10*
%TO.P,J10_12Vin1,2*%
%TO.N,GND*%
X15875000Y-4445000D03*
D11*
%TO.P,J10_12Vin1,1*%
%TO.N,+12V*%
X20955000Y-4445000D03*
%TD*%
D14*
%TO.P,J2,40*%
%TO.N,Net-(J2-Pad40)*%
X53975000Y-56970000D03*
%TO.P,J2,39*%
%TO.N,GND*%
X51435000Y-56970000D03*
%TO.P,J2,38*%
%TO.N,Net-(J2-Pad38)*%
X53975000Y-54430000D03*
%TO.P,J2,37*%
%TO.N,/Blue*%
X51435000Y-54430000D03*
%TO.P,J2,36*%
%TO.N,Net-(J2-Pad36)*%
X53975000Y-51890000D03*
%TO.P,J2,35*%
%TO.N,/Green*%
X51435000Y-51890000D03*
%TO.P,J2,34*%
%TO.N,Net-(J2-Pad34)*%
X53975000Y-49350000D03*
%TO.P,J2,33*%
%TO.N,/Red*%
X51435000Y-49350000D03*
%TO.P,J2,32*%
%TO.N,Net-(J2-Pad32)*%
X53975000Y-46810000D03*
%TO.P,J2,31*%
%TO.N,/White*%
X51435000Y-46810000D03*
%TO.P,J2,30*%
%TO.N,GND*%
X53975000Y-44270000D03*
%TO.P,J2,29*%
%TO.N,Net-(J1_ButtonPad1-Pad8)*%
X51435000Y-44270000D03*
%TO.P,J2,28*%
%TO.N,Net-(J2-Pad28)*%
X53975000Y-41730000D03*
%TO.P,J2,27*%
%TO.N,Net-(J2-Pad27)*%
X51435000Y-41730000D03*
%TO.P,J2,26*%
%TO.N,Net-(J2-Pad26)*%
X53975000Y-39190000D03*
%TO.P,J2,25*%
%TO.N,Net-(J2-Pad25)*%
X51435000Y-39190000D03*
%TO.P,J2,24*%
%TO.N,Net-(J2-Pad24)*%
X53975000Y-36650000D03*
%TO.P,J2,23*%
%TO.N,Net-(J1_ButtonPad1-Pad7)*%
X51435000Y-36650000D03*
%TO.P,J2,22*%
%TO.N,Net-(J2-Pad22)*%
X53975000Y-34110000D03*
%TO.P,J2,21*%
%TO.N,Net-(J1_ButtonPad1-Pad6)*%
X51435000Y-34110000D03*
%TO.P,J2,20*%
%TO.N,GND*%
X53975000Y-31570000D03*
%TO.P,J2,19*%
%TO.N,Net-(J1_ButtonPad1-Pad5)*%
X51435000Y-31570000D03*
%TO.P,J2,18*%
%TO.N,Net-(J2-Pad18)*%
X53975000Y-29030000D03*
%TO.P,J2,17*%
%TO.N,Net-(J2-Pad17)*%
X51435000Y-29030000D03*
%TO.P,J2,16*%
%TO.N,Net-(J2-Pad16)*%
X53975000Y-26490000D03*
%TO.P,J2,15*%
%TO.N,Net-(J1_ButtonPad1-Pad4)*%
X51435000Y-26490000D03*
%TO.P,J2,14*%
%TO.N,GND*%
X53975000Y-23950000D03*
%TO.P,J2,13*%
%TO.N,Net-(J1_ButtonPad1-Pad3)*%
X51435000Y-23950000D03*
%TO.P,J2,12*%
%TO.N,Net-(J2-Pad12)*%
X53975000Y-21410000D03*
%TO.P,J2,11*%
%TO.N,Net-(J1_ButtonPad1-Pad2)*%
X51435000Y-21410000D03*
%TO.P,J2,10*%
%TO.N,Net-(J2-Pad10)*%
X53975000Y-18870000D03*
%TO.P,J2,9*%
%TO.N,Net-(J2-Pad9)*%
X51435000Y-18870000D03*
%TO.P,J2,8*%
%TO.N,Net-(J2-Pad8)*%
X53975000Y-16330000D03*
%TO.P,J2,7*%
%TO.N,Net-(J1_ButtonPad1-Pad1)*%
X51435000Y-16330000D03*
%TO.P,J2,6*%
%TO.N,Net-(J2-Pad6)*%
X53975000Y-13790000D03*
%TO.P,J2,5*%
%TO.N,Net-(J2-Pad5)*%
X51435000Y-13790000D03*
%TO.P,J2,4*%
%TO.N,Net-(J2-Pad4)*%
X53975000Y-11250000D03*
%TO.P,J2,3*%
%TO.N,Net-(J2-Pad3)*%
X51435000Y-11250000D03*
%TO.P,J2,2*%
%TO.N,+5V*%
X53975000Y-8710000D03*
D15*
%TO.P,J2,1*%
%TO.N,+3V3*%
X51435000Y-8710000D03*
%TD*%
D16*
%TO.N,GND*%
X52705000Y-3810000D03*
D17*
X3705000Y-61810000D03*
X52705000Y-61810000D03*
X3705000Y-3810000D03*
D16*
X30480000Y-59690000D03*
X30480000Y-50800000D03*
X29845000Y-41275000D03*
X29845000Y-30480000D03*
X29845000Y-19685000D03*
%TD*%
D18*
%TO.N,Net-(J2-Pad40)*%
X58240000Y-56970000D02*
X58420000Y-57150000D01*
X54155000Y-56970000D02*
X58240000Y-56970000D01*
X53975000Y-57150000D02*
X54155000Y-56970000D01*
%TO.N,Net-(J2-Pad38)*%
X58240000Y-54430000D02*
X58420000Y-54610000D01*
X54155000Y-54430000D02*
X58240000Y-54430000D01*
X53975000Y-54610000D02*
X54155000Y-54430000D01*
%TO.N,Net-(J1_ButtonPad1-Pad8)*%
X48895000Y-44450000D02*
X43815000Y-39370000D01*
X51435000Y-44450000D02*
X48895000Y-44450000D01*
%TO.N,Net-(J2-Pad36)*%
X53975000Y-52070000D02*
X58420000Y-52070000D01*
%TO.N,Net-(J2-Pad32)*%
X55700000Y-46810000D02*
X58420000Y-49530000D01*
X54155000Y-46810000D02*
X55700000Y-46810000D01*
X53975000Y-46990000D02*
X54155000Y-46810000D01*
%TO.N,Net-(J1_ButtonPad1-Pad7)*%
X51435000Y-36830000D02*
X43815000Y-36830000D01*
%TO.N,Net-(J1_ButtonPad1-Pad6)*%
X51435000Y-34290000D02*
X43815000Y-34290000D01*
%TO.N,Net-(J1_ButtonPad1-Pad5)*%
X51435000Y-31750000D02*
X43815000Y-31750000D01*
D19*
%TO.N,+3V3*%
X40640000Y-7620000D02*
X44450000Y-7620000D01*
X44450000Y-7620000D02*
X46355000Y-7620000D01*
X47445000Y-8710000D02*
X51435000Y-8710000D01*
X46355000Y-7620000D02*
X47445000Y-8710000D01*
D18*
%TO.N,Net-(J1_ButtonPad1-Pad4)*%
X51435000Y-26670000D02*
X49530000Y-26670000D01*
X46990000Y-29210000D02*
X43815000Y-29210000D01*
X49530000Y-26670000D02*
X46990000Y-29210000D01*
%TO.N,Net-(J1_ButtonPad1-Pad3)*%
X51435000Y-24130000D02*
X48895000Y-24130000D01*
X46355000Y-26670000D02*
X43815000Y-26670000D01*
X48895000Y-24130000D02*
X46355000Y-26670000D01*
%TO.N,Net-(J2-Pad12)*%
X24765000Y-6985000D02*
X29210000Y-11430000D01*
X24765000Y-2540000D02*
X24765000Y-6985000D01*
X53975000Y-21410000D02*
X55425000Y-21410000D01*
X53975000Y-1270000D02*
X26035000Y-1270000D01*
X29210000Y-11430000D02*
X29210000Y-15240000D01*
X26035000Y-1270000D02*
X24765000Y-2540000D01*
X55880000Y-3175000D02*
X53975000Y-1270000D01*
X55880000Y-20955000D02*
X55880000Y-3175000D01*
X55425000Y-21410000D02*
X55880000Y-20955000D01*
%TO.N,Net-(J1_ButtonPad1-Pad2)*%
X48260000Y-21590000D02*
X51435000Y-21590000D01*
X45720000Y-24130000D02*
X48260000Y-21590000D01*
X43815000Y-24130000D02*
X45720000Y-24130000D01*
%TO.N,Net-(J1_ButtonPad1-Pad1)*%
X50165000Y-16510000D02*
X51435000Y-16510000D01*
X45085000Y-21590000D02*
X50165000Y-16510000D01*
X43815000Y-21590000D02*
X45085000Y-21590000D01*
%TO.N,Net-(J2-Pad5)*%
X40640000Y-15240000D02*
X44450000Y-15240000D01*
X51435000Y-13790000D02*
X49710000Y-13790000D01*
X48260000Y-15240000D02*
X44450000Y-15240000D01*
X49710000Y-13790000D02*
X48260000Y-15240000D01*
%TO.N,Net-(J2-Pad3)*%
X40640000Y-12700000D02*
X44450000Y-12700000D01*
X46990000Y-12700000D02*
X44450000Y-12700000D01*
X48440000Y-11250000D02*
X46990000Y-12700000D01*
X51435000Y-11250000D02*
X48440000Y-11250000D01*
D19*
%TO.N,+5V*%
X34290000Y-3810000D02*
X33655000Y-4445000D01*
X47307500Y-3810000D02*
X34290000Y-3810000D01*
X49847500Y-6350000D02*
X47307500Y-3810000D01*
X53340000Y-6350000D02*
X49847500Y-6350000D01*
X53975000Y-6985000D02*
X53340000Y-6350000D01*
X53975000Y-8890000D02*
X53975000Y-6985000D01*
D20*
%TO.N,+12V*%
X20955000Y-6985000D02*
X20955000Y-4445000D01*
D19*
X24130000Y-12700000D02*
X19685000Y-8255000D01*
X24130000Y-15240000D02*
X24130000Y-12700000D01*
D20*
X19685000Y-8255000D02*
X20955000Y-6985000D01*
X12065000Y-13970000D02*
X5715000Y-13970000D01*
X18415000Y-9525000D02*
X19685000Y-8255000D01*
X5715000Y-13335000D02*
X9525000Y-9525000D01*
X8890000Y-31115000D02*
X5715000Y-27940000D01*
X9525000Y-9525000D02*
X18415000Y-9525000D01*
X5715000Y-27940000D02*
X5715000Y-13335000D01*
X12065000Y-31115000D02*
X8890000Y-31115000D01*
%TO.N,Net-(J8_RGB_Gnd1-Pad4)*%
X20995000Y-57785000D02*
X23495000Y-57785000D01*
X12065000Y-48855000D02*
X20995000Y-57785000D01*
X12065000Y-46355000D02*
X12065000Y-48855000D01*
%TO.N,Net-(J8_RGB_Gnd1-Pad3)*%
X21832498Y-46990000D02*
X23495000Y-46990000D01*
X20320000Y-46990000D02*
X21832498Y-46990000D01*
X14605000Y-41275000D02*
X20320000Y-46990000D01*
X12065000Y-41275000D02*
X14605000Y-41275000D01*
%TO.N,Net-(J8_RGB_Gnd1-Pad2)*%
X20955000Y-36195000D02*
X23495000Y-36195000D01*
X12065000Y-36195000D02*
X20955000Y-36195000D01*
%TO.N,Net-(J9_W_Gnd1-Pad2)*%
X20955000Y-25400000D02*
X14605000Y-19050000D01*
X23495000Y-25400000D02*
X20955000Y-25400000D01*
X14605000Y-19050000D02*
X12065000Y-19050000D01*
D18*
%TO.N,/Blue*%
X27305000Y-55245000D02*
X23495000Y-55245000D01*
X28120000Y-54430000D02*
X27305000Y-55245000D01*
X51435000Y-54430000D02*
X28120000Y-54430000D01*
%TO.N,/Green*%
X51255000Y-51890000D02*
X51435000Y-52070000D01*
X31115000Y-44450000D02*
X38555000Y-51890000D01*
X38555000Y-51890000D02*
X51255000Y-51890000D01*
X23495000Y-44450000D02*
X31115000Y-44450000D01*
%TO.N,/Red*%
X32385000Y-33655000D02*
X23495000Y-33655000D01*
X33655000Y-34925000D02*
X32385000Y-33655000D01*
X42365000Y-49350000D02*
X33655000Y-40640000D01*
X33655000Y-40640000D02*
X33655000Y-34925000D01*
X51255000Y-49350000D02*
X42365000Y-49350000D01*
X51435000Y-49530000D02*
X51255000Y-49350000D01*
%TO.N,/White*%
X51255000Y-46810000D02*
X51435000Y-46990000D01*
X23495000Y-22860000D02*
X37465000Y-22860000D01*
X44905000Y-46810000D02*
X51255000Y-46810000D01*
X37465000Y-22860000D02*
X38735000Y-24130000D01*
X38735000Y-40640000D02*
X44905000Y-46810000D01*
X38735000Y-24130000D02*
X38735000Y-40640000D01*
%TD*%
D21*
%TO.N,GND*%
X24040865Y-1741028D02*
X23999761Y-1774761D01*
X23865174Y-1938756D01*
X23765167Y-2125857D01*
X23703583Y-2328872D01*
X23688000Y-2487091D01*
X23682789Y-2540000D01*
X23688000Y-2592907D01*
X23688001Y-6932083D01*
X23682789Y-6985000D01*
X23703584Y-7196129D01*
X23765168Y-7399144D01*
X23865175Y-7586244D01*
X23999762Y-7750239D01*
X24040861Y-7783968D01*
X28133000Y-11876108D01*
X28133001Y-13945363D01*
X27940000Y-14138364D01*
X27739025Y-13937389D01*
X27464357Y-13753862D01*
X27159163Y-13627446D01*
X26835170Y-13563000D01*
X26504830Y-13563000D01*
X26180837Y-13627446D01*
X25875643Y-13753862D01*
X25600975Y-13937389D01*
X25457000Y-14081364D01*
X25457000Y-12765173D01*
X25463419Y-12699999D01*
X25457000Y-12634825D01*
X25457000Y-12634816D01*
X25437799Y-12439863D01*
X25361919Y-12189722D01*
X25238698Y-11959192D01*
X25238697Y-11959190D01*
X25114422Y-11807761D01*
X25114421Y-11807760D01*
X25072870Y-11757130D01*
X25022240Y-11715579D01*
X21738437Y-8431777D01*
X22015328Y-8154887D01*
X22075503Y-8105503D01*
X22272572Y-7865373D01*
X22419007Y-7591412D01*
X22509182Y-7294146D01*
X22532000Y-7062469D01*
X22532000Y-7062468D01*
X22539630Y-6985001D01*
X22532000Y-6907534D01*
X22532000Y-6768417D01*
X22617120Y-6760034D01*
X22773010Y-6712745D01*
X22916679Y-6635952D01*
X23042606Y-6532606D01*
X23145952Y-6406679D01*
X23222745Y-6263010D01*
X23270034Y-6107120D01*
X23286001Y-5945000D01*
X23286001Y-2945000D01*
X23270034Y-2782880D01*
X23222745Y-2626990D01*
X23145952Y-2483321D01*
X23042606Y-2357394D01*
X22916679Y-2254048D01*
X22773010Y-2177255D01*
X22617120Y-2129966D01*
X22455000Y-2113999D01*
X19455000Y-2113999D01*
X19292880Y-2129966D01*
X19136990Y-2177255D01*
X18993321Y-2254048D01*
X18867394Y-2357394D01*
X18764048Y-2483321D01*
X18687255Y-2626990D01*
X18639966Y-2782880D01*
X18623999Y-2945000D01*
X18623999Y-5945000D01*
X18639966Y-6107120D01*
X18687255Y-6263010D01*
X18764048Y-6406679D01*
X18867394Y-6532606D01*
X18993321Y-6635952D01*
X19045789Y-6663997D01*
X18624676Y-7085110D01*
X18624671Y-7085114D01*
X17761786Y-7948000D01*
X9602469Y-7948000D01*
X9525000Y-7940370D01*
X9215853Y-7970818D01*
X8918588Y-8060993D01*
X8644626Y-8207428D01*
X8540603Y-8292798D01*
X8404497Y-8404497D01*
X8355113Y-8464672D01*
X4654674Y-12165112D01*
X4594498Y-12214497D01*
X4499851Y-12329825D01*
X4397429Y-12454627D01*
X4250993Y-12728589D01*
X4160819Y-13025854D01*
X4130370Y-13335000D01*
X4138001Y-13412477D01*
X4138001Y-13892521D01*
X4130370Y-13970000D01*
X4138001Y-14047479D01*
X4138000Y-27862533D01*
X4130370Y-27940000D01*
X4138000Y-28017467D01*
X4138000Y-28017468D01*
X4160818Y-28249145D01*
X4250993Y-28546411D01*
X4397428Y-28820372D01*
X4594497Y-29060503D01*
X4654678Y-29109893D01*
X7720112Y-32175327D01*
X7769497Y-32235503D01*
X8009627Y-32432572D01*
X8283588Y-32579007D01*
X8580854Y-32669182D01*
X8812531Y-32692000D01*
X8812532Y-32692000D01*
X8889999Y-32699630D01*
X8967466Y-32692000D01*
X9741583Y-32692000D01*
X9749966Y-32777120D01*
X9797255Y-32933010D01*
X9874048Y-33076679D01*
X9977394Y-33202606D01*
X10103321Y-33305952D01*
X10246990Y-33382745D01*
X10402880Y-33430034D01*
X10565000Y-33446001D01*
X13565000Y-33446001D01*
X13727120Y-33430034D01*
X13883010Y-33382745D01*
X14026679Y-33305952D01*
X14152606Y-33202606D01*
X14255952Y-33076679D01*
X14332745Y-32933010D01*
X14380034Y-32777120D01*
X14396001Y-32615000D01*
X14396001Y-29615000D01*
X14380034Y-29452880D01*
X14332745Y-29296990D01*
X14255952Y-29153321D01*
X14152606Y-29027394D01*
X14026679Y-28924048D01*
X13883010Y-28847255D01*
X13727120Y-28799966D01*
X13565000Y-28783999D01*
X10565000Y-28783999D01*
X10402880Y-28799966D01*
X10246990Y-28847255D01*
X10103321Y-28924048D01*
X9977394Y-29027394D01*
X9874048Y-29153321D01*
X9797255Y-29296990D01*
X9749966Y-29452880D01*
X9741583Y-29538000D01*
X9543215Y-29538000D01*
X7292000Y-27286786D01*
X7292000Y-15547000D01*
X9741583Y-15547000D01*
X9749966Y-15632120D01*
X9797255Y-15788010D01*
X9874048Y-15931679D01*
X9977394Y-16057606D01*
X10103321Y-16160952D01*
X10246990Y-16237745D01*
X10402880Y-16285034D01*
X10565000Y-16301001D01*
X13565000Y-16301001D01*
X13727120Y-16285034D01*
X13883010Y-16237745D01*
X14026679Y-16160952D01*
X14152606Y-16057606D01*
X14255952Y-15931679D01*
X14332745Y-15788010D01*
X14380034Y-15632120D01*
X14396001Y-15470000D01*
X14396001Y-12470000D01*
X14380034Y-12307880D01*
X14332745Y-12151990D01*
X14255952Y-12008321D01*
X14152606Y-11882394D01*
X14026679Y-11779048D01*
X13883010Y-11702255D01*
X13727120Y-11654966D01*
X13565000Y-11638999D01*
X10565000Y-11638999D01*
X10402880Y-11654966D01*
X10246990Y-11702255D01*
X10103321Y-11779048D01*
X9977394Y-11882394D01*
X9874048Y-12008321D01*
X9797255Y-12151990D01*
X9749966Y-12307880D01*
X9741583Y-12393000D01*
X8887215Y-12393000D01*
X10178215Y-11102000D01*
X18337533Y-11102000D01*
X18415000Y-11109630D01*
X18492467Y-11102000D01*
X18492469Y-11102000D01*
X18724146Y-11079182D01*
X19021412Y-10989007D01*
X19295373Y-10842572D01*
X19535503Y-10645503D01*
X19584892Y-10585322D01*
X19861777Y-10308437D01*
X22803001Y-13249662D01*
X22803000Y-14207475D01*
X22643862Y-14445643D01*
X22517446Y-14750837D01*
X22453000Y-15074830D01*
X22453000Y-15405170D01*
X22517446Y-15729163D01*
X22643862Y-16034357D01*
X22827389Y-16309025D01*
X23060975Y-16542611D01*
X23335643Y-16726138D01*
X23640837Y-16852554D01*
X23964830Y-16917000D01*
X24295170Y-16917000D01*
X24619163Y-16852554D01*
X24924357Y-16726138D01*
X25199025Y-16542611D01*
X25400000Y-16341636D01*
X25600975Y-16542611D01*
X25875643Y-16726138D01*
X26180837Y-16852554D01*
X26504830Y-16917000D01*
X26835170Y-16917000D01*
X27159163Y-16852554D01*
X27464357Y-16726138D01*
X27739025Y-16542611D01*
X27940000Y-16341636D01*
X28140975Y-16542611D01*
X28415643Y-16726138D01*
X28720837Y-16852554D01*
X29044830Y-16917000D01*
X29375170Y-16917000D01*
X29699163Y-16852554D01*
X30004357Y-16726138D01*
X30279025Y-16542611D01*
X30512611Y-16309025D01*
X30696138Y-16034357D01*
X30822554Y-15729163D01*
X30887000Y-15405170D01*
X30887000Y-15074830D01*
X30822554Y-14750837D01*
X30696138Y-14445643D01*
X30512611Y-14170975D01*
X30287000Y-13945364D01*
X30287000Y-11482906D01*
X30292211Y-11429999D01*
X30285965Y-11366580D01*
X30271417Y-11218871D01*
X30209833Y-11015856D01*
X30109826Y-10828756D01*
X29975239Y-10664761D01*
X29934140Y-10631032D01*
X25842000Y-6538893D01*
X25842000Y-2986107D01*
X26481108Y-2347000D01*
X31580059Y-2347000D01*
X31567394Y-2357394D01*
X31464048Y-2483321D01*
X31387255Y-2626990D01*
X31339966Y-2782880D01*
X31323999Y-2945000D01*
X31323999Y-5945000D01*
X31339966Y-6107120D01*
X31387255Y-6263010D01*
X31464048Y-6406679D01*
X31567394Y-6532606D01*
X31693321Y-6635952D01*
X31836990Y-6712745D01*
X31992880Y-6760034D01*
X32155000Y-6776001D01*
X35155000Y-6776001D01*
X35317120Y-6760034D01*
X35473010Y-6712745D01*
X35616679Y-6635952D01*
X35742606Y-6532606D01*
X35845952Y-6406679D01*
X35922745Y-6263010D01*
X35970034Y-6107120D01*
X35986001Y-5945000D01*
X35986001Y-5137000D01*
X46757840Y-5137000D01*
X48863077Y-7242238D01*
X48904630Y-7292870D01*
X48955260Y-7334421D01*
X48955261Y-7334422D01*
X49014453Y-7383000D01*
X47994661Y-7383000D01*
X47339425Y-6727765D01*
X47297870Y-6677130D01*
X47095808Y-6511302D01*
X46865278Y-6388081D01*
X46615137Y-6312201D01*
X46420184Y-6293000D01*
X46420174Y-6293000D01*
X46355000Y-6286581D01*
X46289826Y-6293000D01*
X45978378Y-6293000D01*
X45887606Y-6182394D01*
X45761679Y-6079048D01*
X45618010Y-6002255D01*
X45462120Y-5954966D01*
X45300000Y-5938999D01*
X43600000Y-5938999D01*
X43437880Y-5954966D01*
X43281990Y-6002255D01*
X43138321Y-6079048D01*
X43012394Y-6182394D01*
X42921622Y-6293000D01*
X42168378Y-6293000D01*
X42077606Y-6182394D01*
X41951679Y-6079048D01*
X41808010Y-6002255D01*
X41652120Y-5954966D01*
X41490000Y-5938999D01*
X39790000Y-5938999D01*
X39627880Y-5954966D01*
X39471990Y-6002255D01*
X39328321Y-6079048D01*
X39202394Y-6182394D01*
X39099048Y-6308321D01*
X39022255Y-6451990D01*
X38974966Y-6607880D01*
X38958999Y-6770000D01*
X38958999Y-8470000D01*
X38974966Y-8632120D01*
X39022255Y-8788010D01*
X39099048Y-8931679D01*
X39202394Y-9057606D01*
X39328321Y-9160952D01*
X39471990Y-9237745D01*
X39627880Y-9285034D01*
X39790000Y-9301001D01*
X41490000Y-9301001D01*
X41652120Y-9285034D01*
X41808010Y-9237745D01*
X41951679Y-9160952D01*
X42077606Y-9057606D01*
X42168378Y-8947000D01*
X42921622Y-8947000D01*
X43012394Y-9057606D01*
X43138321Y-9160952D01*
X43281990Y-9237745D01*
X43437880Y-9285034D01*
X43600000Y-9301001D01*
X45300000Y-9301001D01*
X45462120Y-9285034D01*
X45618010Y-9237745D01*
X45761679Y-9160952D01*
X45887606Y-9057606D01*
X45900380Y-9042041D01*
X46460579Y-9602240D01*
X46502130Y-9652870D01*
X46552760Y-9694421D01*
X46552761Y-9694422D01*
X46704191Y-9818698D01*
X46934722Y-9941919D01*
X47184863Y-10017799D01*
X47379816Y-10037000D01*
X47379826Y-10037000D01*
X47445000Y-10043419D01*
X47510174Y-10037000D01*
X49906622Y-10037000D01*
X49997394Y-10147606D01*
X50028337Y-10173000D01*
X48492909Y-10173000D01*
X48440000Y-10167789D01*
X48228870Y-10188583D01*
X48167286Y-10207265D01*
X48025856Y-10250167D01*
X47938762Y-10296720D01*
X47838755Y-10350174D01*
X47793883Y-10387000D01*
X47674761Y-10484761D01*
X47641032Y-10525860D01*
X46543893Y-11623000D01*
X45744636Y-11623000D01*
X45519025Y-11397389D01*
X45244357Y-11213862D01*
X44939163Y-11087446D01*
X44615170Y-11023000D01*
X44284830Y-11023000D01*
X43960837Y-11087446D01*
X43655643Y-11213862D01*
X43380975Y-11397389D01*
X43155364Y-11623000D01*
X41934636Y-11623000D01*
X41709025Y-11397389D01*
X41434357Y-11213862D01*
X41129163Y-11087446D01*
X40805170Y-11023000D01*
X40474830Y-11023000D01*
X40150837Y-11087446D01*
X39845643Y-11213862D01*
X39570975Y-11397389D01*
X39337389Y-11630975D01*
X39153862Y-11905643D01*
X39027446Y-12210837D01*
X38963000Y-12534830D01*
X38963000Y-12865170D01*
X39027446Y-13189163D01*
X39153862Y-13494357D01*
X39337389Y-13769025D01*
X39538364Y-13970000D01*
X39337389Y-14170975D01*
X39153862Y-14445643D01*
X39027446Y-14750837D01*
X38963000Y-15074830D01*
X38963000Y-15405170D01*
X39027446Y-15729163D01*
X39153862Y-16034357D01*
X39337389Y-16309025D01*
X39570975Y-16542611D01*
X39845643Y-16726138D01*
X40150837Y-16852554D01*
X40474830Y-16917000D01*
X40805170Y-16917000D01*
X41129163Y-16852554D01*
X41434357Y-16726138D01*
X41709025Y-16542611D01*
X41934636Y-16317000D01*
X43155364Y-16317000D01*
X43380975Y-16542611D01*
X43655643Y-16726138D01*
X43960837Y-16852554D01*
X44284830Y-16917000D01*
X44615170Y-16917000D01*
X44939163Y-16852554D01*
X45244357Y-16726138D01*
X45519025Y-16542611D01*
X45744636Y-16317000D01*
X48207093Y-16317000D01*
X48260000Y-16322211D01*
X48312907Y-16317000D01*
X48312909Y-16317000D01*
X48471129Y-16301417D01*
X48674144Y-16239833D01*
X48861244Y-16139826D01*
X49025239Y-16005239D01*
X49058972Y-15964135D01*
X50148236Y-14874872D01*
X50333364Y-15060000D01*
X50132389Y-15260975D01*
X50010779Y-15442978D01*
X49953871Y-15448583D01*
X49750856Y-15510167D01*
X49563756Y-15610174D01*
X49399761Y-15744761D01*
X49366032Y-15785860D01*
X45111147Y-20040746D01*
X44983010Y-19972255D01*
X44827120Y-19924966D01*
X44665000Y-19908999D01*
X42965000Y-19908999D01*
X42802880Y-19924966D01*
X42646990Y-19972255D01*
X42503321Y-20049048D01*
X42377394Y-20152394D01*
X42274048Y-20278321D01*
X42197255Y-20421990D01*
X42149966Y-20577880D01*
X42133999Y-20740000D01*
X42133999Y-22440000D01*
X42149966Y-22602120D01*
X42197255Y-22758010D01*
X42274048Y-22901679D01*
X42377394Y-23027606D01*
X42478980Y-23110976D01*
X42328862Y-23335643D01*
X42202446Y-23640837D01*
X42138000Y-23964830D01*
X42138000Y-24295170D01*
X42202446Y-24619163D01*
X42328862Y-24924357D01*
X42512389Y-25199025D01*
X42713364Y-25400000D01*
X42512389Y-25600975D01*
X42328862Y-25875643D01*
X42202446Y-26180837D01*
X42138000Y-26504830D01*
X42138000Y-26835170D01*
X42202446Y-27159163D01*
X42328862Y-27464357D01*
X42512389Y-27739025D01*
X42713364Y-27940000D01*
X42512389Y-28140975D01*
X42328862Y-28415643D01*
X42202446Y-28720837D01*
X42138000Y-29044830D01*
X42138000Y-29375170D01*
X42202446Y-29699163D01*
X42328862Y-30004357D01*
X42512389Y-30279025D01*
X42713364Y-30480000D01*
X42512389Y-30680975D01*
X42328862Y-30955643D01*
X42202446Y-31260837D01*
X42138000Y-31584830D01*
X42138000Y-31915170D01*
X42202446Y-32239163D01*
X42328862Y-32544357D01*
X42512389Y-32819025D01*
X42713364Y-33020000D01*
X42512389Y-33220975D01*
X42328862Y-33495643D01*
X42202446Y-33800837D01*
X42138000Y-34124830D01*
X42138000Y-34455170D01*
X42202446Y-34779163D01*
X42328862Y-35084357D01*
X42512389Y-35359025D01*
X42713364Y-35560000D01*
X42512389Y-35760975D01*
X42328862Y-36035643D01*
X42202446Y-36340837D01*
X42138000Y-36664830D01*
X42138000Y-36995170D01*
X42202446Y-37319163D01*
X42328862Y-37624357D01*
X42512389Y-37899025D01*
X42713364Y-38100000D01*
X42512389Y-38300975D01*
X42328862Y-38575643D01*
X42202446Y-38880837D01*
X42138000Y-39204830D01*
X42138000Y-39535170D01*
X42202446Y-39859163D01*
X42328862Y-40164357D01*
X42512389Y-40439025D01*
X42745975Y-40672611D01*
X43020643Y-40856138D01*
X43325837Y-40982554D01*
X43649830Y-41047000D01*
X43968893Y-41047000D01*
X48096032Y-45174140D01*
X48129761Y-45215239D01*
X48293756Y-45349826D01*
X48480856Y-45449833D01*
X48683871Y-45511417D01*
X48842091Y-45527000D01*
X48842093Y-45527000D01*
X48895000Y-45532211D01*
X48947907Y-45527000D01*
X50320364Y-45527000D01*
X50333364Y-45540000D01*
X50140364Y-45733000D01*
X45351108Y-45733000D01*
X39812000Y-40193893D01*
X39812000Y-24182906D01*
X39817211Y-24129999D01*
X39812000Y-24077091D01*
X39796417Y-23918871D01*
X39734833Y-23715856D01*
X39634826Y-23528756D01*
X39500239Y-23364761D01*
X39459140Y-23331032D01*
X38263972Y-22135865D01*
X38230239Y-22094761D01*
X38066244Y-21960174D01*
X37879144Y-21860167D01*
X37676129Y-21798583D01*
X37517909Y-21783000D01*
X37517907Y-21783000D01*
X37465000Y-21777789D01*
X37412093Y-21783000D01*
X25313739Y-21783000D01*
X25310034Y-21745380D01*
X25262745Y-21589490D01*
X25185952Y-21445821D01*
X25082606Y-21319894D01*
X24956679Y-21216548D01*
X24813010Y-21139755D01*
X24657120Y-21092466D01*
X24495000Y-21076499D01*
X22495000Y-21076499D01*
X22332880Y-21092466D01*
X22176990Y-21139755D01*
X22033321Y-21216548D01*
X21907394Y-21319894D01*
X21804048Y-21445821D01*
X21727255Y-21589490D01*
X21679966Y-21745380D01*
X21663999Y-21907500D01*
X21663999Y-23812500D01*
X21665033Y-23823000D01*
X21608215Y-23823000D01*
X15774893Y-17989679D01*
X15725503Y-17929497D01*
X15485373Y-17732428D01*
X15211412Y-17585993D01*
X14914146Y-17495818D01*
X14682469Y-17473000D01*
X14682467Y-17473000D01*
X14605000Y-17465370D01*
X14527533Y-17473000D01*
X13778875Y-17473000D01*
X13548376Y-17242501D01*
X13167248Y-16987840D01*
X12743761Y-16812426D01*
X12294189Y-16723000D01*
X11835811Y-16723000D01*
X11386239Y-16812426D01*
X10962752Y-16987840D01*
X10581624Y-17242501D01*
X10257501Y-17566624D01*
X10002840Y-17947752D01*
X9827426Y-18371239D01*
X9738000Y-18820811D01*
X9738000Y-19279189D01*
X9827426Y-19728761D01*
X10002840Y-20152248D01*
X10257501Y-20533376D01*
X10581624Y-20857499D01*
X10962752Y-21112160D01*
X11386239Y-21287574D01*
X11835811Y-21377000D01*
X12294189Y-21377000D01*
X12743761Y-21287574D01*
X13167248Y-21112160D01*
X13548376Y-20857499D01*
X13778875Y-20627000D01*
X13951786Y-20627000D01*
X19785112Y-26460327D01*
X19834497Y-26520503D01*
X20074627Y-26717572D01*
X20348588Y-26864007D01*
X20645854Y-26954182D01*
X20877531Y-26977000D01*
X20877532Y-26977000D01*
X20954999Y-26984630D01*
X21032466Y-26977000D01*
X22622908Y-26977000D01*
X22763220Y-27051998D01*
X23098657Y-27153752D01*
X23360081Y-27179500D01*
X23629919Y-27179500D01*
X23891343Y-27153752D01*
X24226780Y-27051998D01*
X24535921Y-26886759D01*
X24806885Y-26664385D01*
X25029259Y-26393421D01*
X25194498Y-26084280D01*
X25296252Y-25748843D01*
X25330610Y-25400000D01*
X25296252Y-25051157D01*
X25194498Y-24715720D01*
X25043120Y-24432511D01*
X25082606Y-24400106D01*
X25185952Y-24274179D01*
X25262745Y-24130510D01*
X25310034Y-23974620D01*
X25313739Y-23937000D01*
X37018893Y-23937000D01*
X37658000Y-24576108D01*
X37658001Y-40587083D01*
X37652789Y-40640000D01*
X37668800Y-40802554D01*
X37673584Y-40851129D01*
X37735168Y-41054144D01*
X37835175Y-41241244D01*
X37969762Y-41405239D01*
X38010861Y-41438968D01*
X44106032Y-47534140D01*
X44139761Y-47575239D01*
X44180858Y-47608966D01*
X44303755Y-47709826D01*
X44349914Y-47734498D01*
X44490856Y-47809833D01*
X44619969Y-47848999D01*
X44693870Y-47871417D01*
X44905000Y-47892211D01*
X44957909Y-47887000D01*
X50140364Y-47887000D01*
X50333364Y-48080000D01*
X50140364Y-48273000D01*
X42811108Y-48273000D01*
X34732000Y-40193893D01*
X34732000Y-34977906D01*
X34737211Y-34924999D01*
X34732000Y-34872091D01*
X34716417Y-34713871D01*
X34654833Y-34510856D01*
X34554826Y-34323756D01*
X34420239Y-34159761D01*
X34379140Y-34126032D01*
X33183972Y-32930865D01*
X33150239Y-32889761D01*
X32986244Y-32755174D01*
X32799144Y-32655167D01*
X32596129Y-32593583D01*
X32437909Y-32578000D01*
X32437907Y-32578000D01*
X32385000Y-32572789D01*
X32332093Y-32578000D01*
X25313739Y-32578000D01*
X25310034Y-32540380D01*
X25262745Y-32384490D01*
X25185952Y-32240821D01*
X25082606Y-32114894D01*
X24956679Y-32011548D01*
X24813010Y-31934755D01*
X24657120Y-31887466D01*
X24495000Y-31871499D01*
X22495000Y-31871499D01*
X22332880Y-31887466D01*
X22176990Y-31934755D01*
X22033321Y-32011548D01*
X21907394Y-32114894D01*
X21804048Y-32240821D01*
X21727255Y-32384490D01*
X21679966Y-32540380D01*
X21663999Y-32702500D01*
X21663999Y-34607500D01*
X21665033Y-34618000D01*
X13778875Y-34618000D01*
X13548376Y-34387501D01*
X13167248Y-34132840D01*
X12743761Y-33957426D01*
X12294189Y-33868000D01*
X11835811Y-33868000D01*
X11386239Y-33957426D01*
X10962752Y-34132840D01*
X10581624Y-34387501D01*
X10257501Y-34711624D01*
X10002840Y-35092752D01*
X9827426Y-35516239D01*
X9738000Y-35965811D01*
X9738000Y-36424189D01*
X9827426Y-36873761D01*
X10002840Y-37297248D01*
X10257501Y-37678376D01*
X10581624Y-38002499D01*
X10962752Y-38257160D01*
X11386239Y-38432574D01*
X11835811Y-38522000D01*
X12294189Y-38522000D01*
X12743761Y-38432574D01*
X13167248Y-38257160D01*
X13548376Y-38002499D01*
X13778875Y-37772000D01*
X22622908Y-37772000D01*
X22763220Y-37846998D01*
X23098657Y-37948752D01*
X23360081Y-37974500D01*
X23629919Y-37974500D01*
X23891343Y-37948752D01*
X24226780Y-37846998D01*
X24535921Y-37681759D01*
X24806885Y-37459385D01*
X25029259Y-37188421D01*
X25194498Y-36879280D01*
X25296252Y-36543843D01*
X25330610Y-36195000D01*
X25296252Y-35846157D01*
X25194498Y-35510720D01*
X25043120Y-35227511D01*
X25082606Y-35195106D01*
X25185952Y-35069179D01*
X25262745Y-34925510D01*
X25310034Y-34769620D01*
X25313739Y-34732000D01*
X31938893Y-34732000D01*
X32578001Y-35371109D01*
X32578000Y-40587093D01*
X32572789Y-40640000D01*
X32578000Y-40692907D01*
X32578000Y-40692908D01*
X32593583Y-40851128D01*
X32655167Y-41054143D01*
X32755174Y-41241244D01*
X32889761Y-41405239D01*
X32930866Y-41438973D01*
X41566032Y-50074140D01*
X41599761Y-50115239D01*
X41763756Y-50249826D01*
X41950856Y-50349833D01*
X42153871Y-50411417D01*
X42312091Y-50427000D01*
X42312092Y-50427000D01*
X42364999Y-50432211D01*
X42417906Y-50427000D01*
X50140364Y-50427000D01*
X50333364Y-50620000D01*
X50140364Y-50813000D01*
X39001108Y-50813000D01*
X31913973Y-43725866D01*
X31880239Y-43684761D01*
X31716244Y-43550174D01*
X31529144Y-43450167D01*
X31326129Y-43388583D01*
X31167909Y-43373000D01*
X31167907Y-43373000D01*
X31115000Y-43367789D01*
X31062093Y-43373000D01*
X25313739Y-43373000D01*
X25310034Y-43335380D01*
X25262745Y-43179490D01*
X25185952Y-43035821D01*
X25082606Y-42909894D01*
X24956679Y-42806548D01*
X24813010Y-42729755D01*
X24657120Y-42682466D01*
X24495000Y-42666499D01*
X22495000Y-42666499D01*
X22332880Y-42682466D01*
X22176990Y-42729755D01*
X22033321Y-42806548D01*
X21907394Y-42909894D01*
X21804048Y-43035821D01*
X21727255Y-43179490D01*
X21679966Y-43335380D01*
X21663999Y-43497500D01*
X21663999Y-45402500D01*
X21665033Y-45413000D01*
X20973215Y-45413000D01*
X15774893Y-40214679D01*
X15725503Y-40154497D01*
X15485373Y-39957428D01*
X15211412Y-39810993D01*
X14914146Y-39720818D01*
X14682469Y-39698000D01*
X14682467Y-39698000D01*
X14605000Y-39690370D01*
X14527533Y-39698000D01*
X13778875Y-39698000D01*
X13548376Y-39467501D01*
X13167248Y-39212840D01*
X12743761Y-39037426D01*
X12294189Y-38948000D01*
X11835811Y-38948000D01*
X11386239Y-39037426D01*
X10962752Y-39212840D01*
X10581624Y-39467501D01*
X10257501Y-39791624D01*
X10002840Y-40172752D01*
X9827426Y-40596239D01*
X9738000Y-41045811D01*
X9738000Y-41504189D01*
X9827426Y-41953761D01*
X10002840Y-42377248D01*
X10257501Y-42758376D01*
X10581624Y-43082499D01*
X10962752Y-43337160D01*
X11386239Y-43512574D01*
X11835811Y-43602000D01*
X12294189Y-43602000D01*
X12743761Y-43512574D01*
X13167248Y-43337160D01*
X13548376Y-43082499D01*
X13778875Y-42852000D01*
X13951786Y-42852000D01*
X19150112Y-48050327D01*
X19199497Y-48110503D01*
X19259671Y-48159886D01*
X19439626Y-48307572D01*
X19541436Y-48361990D01*
X19713588Y-48454007D01*
X19822351Y-48487000D01*
X20010853Y-48544182D01*
X20320000Y-48574630D01*
X20397469Y-48567000D01*
X22622908Y-48567000D01*
X22763220Y-48641998D01*
X23098657Y-48743752D01*
X23360081Y-48769500D01*
X23629919Y-48769500D01*
X23891343Y-48743752D01*
X24226780Y-48641998D01*
X24535921Y-48476759D01*
X24806885Y-48254385D01*
X25029259Y-47983421D01*
X25194498Y-47674280D01*
X25296252Y-47338843D01*
X25330610Y-46990000D01*
X25296252Y-46641157D01*
X25194498Y-46305720D01*
X25043120Y-46022511D01*
X25082606Y-45990106D01*
X25185952Y-45864179D01*
X25262745Y-45720510D01*
X25310034Y-45564620D01*
X25313739Y-45527000D01*
X30668893Y-45527000D01*
X37756032Y-52614140D01*
X37789761Y-52655239D01*
X37953756Y-52789826D01*
X38140856Y-52889833D01*
X38343871Y-52951417D01*
X38502091Y-52967000D01*
X38502093Y-52967000D01*
X38555000Y-52972211D01*
X38607907Y-52967000D01*
X50140364Y-52967000D01*
X50333364Y-53160000D01*
X50140364Y-53353000D01*
X28172906Y-53353000D01*
X28119999Y-53347789D01*
X28067092Y-53353000D01*
X28067091Y-53353000D01*
X27908871Y-53368583D01*
X27705856Y-53430167D01*
X27518756Y-53530174D01*
X27354761Y-53664761D01*
X27321031Y-53705861D01*
X26858893Y-54168000D01*
X25313739Y-54168000D01*
X25310034Y-54130380D01*
X25262745Y-53974490D01*
X25185952Y-53830821D01*
X25082606Y-53704894D01*
X24956679Y-53601548D01*
X24813010Y-53524755D01*
X24657120Y-53477466D01*
X24495000Y-53461499D01*
X22495000Y-53461499D01*
X22332880Y-53477466D01*
X22176990Y-53524755D01*
X22033321Y-53601548D01*
X21907394Y-53704894D01*
X21804048Y-53830821D01*
X21727255Y-53974490D01*
X21679966Y-54130380D01*
X21663999Y-54292500D01*
X21663999Y-56197500D01*
X21665033Y-56208000D01*
X21648215Y-56208000D01*
X13642000Y-48201786D01*
X13642000Y-48068875D01*
X13872499Y-47838376D01*
X14127160Y-47457248D01*
X14302574Y-47033761D01*
X14392000Y-46584189D01*
X14392000Y-46125811D01*
X14302574Y-45676239D01*
X14127160Y-45252752D01*
X13872499Y-44871624D01*
X13548376Y-44547501D01*
X13167248Y-44292840D01*
X12743761Y-44117426D01*
X12294189Y-44028000D01*
X11835811Y-44028000D01*
X11386239Y-44117426D01*
X10962752Y-44292840D01*
X10581624Y-44547501D01*
X10257501Y-44871624D01*
X10002840Y-45252752D01*
X9827426Y-45676239D01*
X9738000Y-46125811D01*
X9738000Y-46584189D01*
X9827426Y-47033761D01*
X10002840Y-47457248D01*
X10257501Y-47838376D01*
X10488001Y-48068876D01*
X10488001Y-48777524D01*
X10480370Y-48855000D01*
X10510819Y-49164146D01*
X10600993Y-49461411D01*
X10747429Y-49735373D01*
X10944498Y-49975503D01*
X11004674Y-50024888D01*
X19825112Y-58845327D01*
X19874497Y-58905503D01*
X20114627Y-59102572D01*
X20388588Y-59249007D01*
X20685854Y-59339182D01*
X20917531Y-59362000D01*
X20917532Y-59362000D01*
X20994999Y-59369630D01*
X21072466Y-59362000D01*
X22622908Y-59362000D01*
X22763220Y-59436998D01*
X23098657Y-59538752D01*
X23360081Y-59564500D01*
X23629919Y-59564500D01*
X23891343Y-59538752D01*
X24226780Y-59436998D01*
X24535921Y-59271759D01*
X24806885Y-59049385D01*
X25029259Y-58778421D01*
X25194498Y-58469280D01*
X25296252Y-58133843D01*
X25330610Y-57785000D01*
X25296252Y-57436157D01*
X25194498Y-57100720D01*
X25043120Y-56817511D01*
X25082606Y-56785106D01*
X25185952Y-56659179D01*
X25262745Y-56515510D01*
X25310034Y-56359620D01*
X25313739Y-56322000D01*
X27252093Y-56322000D01*
X27305000Y-56327211D01*
X27357907Y-56322000D01*
X27357909Y-56322000D01*
X27516129Y-56306417D01*
X27719144Y-56244833D01*
X27906244Y-56144826D01*
X28070239Y-56010239D01*
X28103972Y-55969135D01*
X28566108Y-55507000D01*
X50140364Y-55507000D01*
X50365975Y-55732611D01*
X50640643Y-55916138D01*
X50945837Y-56042554D01*
X51269830Y-56107000D01*
X51600170Y-56107000D01*
X51924163Y-56042554D01*
X52229357Y-55916138D01*
X52504025Y-55732611D01*
X52705000Y-55531636D01*
X52873364Y-55700000D01*
X52672389Y-55900975D01*
X52488862Y-56175643D01*
X52362446Y-56480837D01*
X52298000Y-56804830D01*
X52298000Y-57135170D01*
X52362446Y-57459163D01*
X52488862Y-57764357D01*
X52672389Y-58039025D01*
X52905975Y-58272611D01*
X53180643Y-58456138D01*
X53485837Y-58582554D01*
X53809830Y-58647000D01*
X54140170Y-58647000D01*
X54464163Y-58582554D01*
X54769357Y-58456138D01*
X55044025Y-58272611D01*
X55269636Y-58047000D01*
X57002446Y-58047000D01*
X57117389Y-58219025D01*
X57350975Y-58452611D01*
X57625643Y-58636138D01*
X57930837Y-58762554D01*
X58254830Y-58827000D01*
X58585170Y-58827000D01*
X58909163Y-58762554D01*
X59214357Y-58636138D01*
X59489025Y-58452611D01*
X59722611Y-58219025D01*
X59906138Y-57944357D01*
X60032554Y-57639163D01*
X60097000Y-57315170D01*
X60097000Y-56984830D01*
X60032554Y-56660837D01*
X59906138Y-56355643D01*
X59722611Y-56080975D01*
X59521636Y-55880000D01*
X59722611Y-55679025D01*
X59906138Y-55404357D01*
X60032554Y-55099163D01*
X60097000Y-54775170D01*
X60097000Y-54444830D01*
X60032554Y-54120837D01*
X59906138Y-53815643D01*
X59722611Y-53540975D01*
X59521636Y-53340000D01*
X59722611Y-53139025D01*
X59906138Y-52864357D01*
X60032554Y-52559163D01*
X60097000Y-52235170D01*
X60097000Y-51904830D01*
X60032554Y-51580837D01*
X59906138Y-51275643D01*
X59756020Y-51050976D01*
X59857606Y-50967606D01*
X59960952Y-50841679D01*
X60037745Y-50698010D01*
X60085034Y-50542120D01*
X60101001Y-50380000D01*
X60101001Y-48680000D01*
X60085034Y-48517880D01*
X60037745Y-48361990D01*
X59960952Y-48218321D01*
X59857606Y-48092394D01*
X59731679Y-47989048D01*
X59588010Y-47912255D01*
X59432120Y-47864966D01*
X59270000Y-47848999D01*
X58262107Y-47848999D01*
X56498973Y-46085866D01*
X56465239Y-46044761D01*
X56301244Y-45910174D01*
X56114144Y-45810167D01*
X55911129Y-45748583D01*
X55752909Y-45733000D01*
X55752907Y-45733000D01*
X55700000Y-45727789D01*
X55647093Y-45733000D01*
X55269636Y-45733000D01*
X55044025Y-45507389D01*
X54769357Y-45323862D01*
X54464163Y-45197446D01*
X54140170Y-45133000D01*
X53809830Y-45133000D01*
X53485837Y-45197446D01*
X53180643Y-45323862D01*
X52905975Y-45507389D01*
X52705000Y-45708364D01*
X52536636Y-45540000D01*
X52737611Y-45339025D01*
X52921138Y-45064357D01*
X53047554Y-44759163D01*
X53112000Y-44435170D01*
X53112000Y-44104830D01*
X53047554Y-43780837D01*
X52921138Y-43475643D01*
X52737611Y-43200975D01*
X52536636Y-43000000D01*
X52705000Y-42831636D01*
X52905975Y-43032611D01*
X53180643Y-43216138D01*
X53485837Y-43342554D01*
X53809830Y-43407000D01*
X54140170Y-43407000D01*
X54464163Y-43342554D01*
X54769357Y-43216138D01*
X55044025Y-43032611D01*
X55277611Y-42799025D01*
X55461138Y-42524357D01*
X55587554Y-42219163D01*
X55652000Y-41895170D01*
X55652000Y-41564830D01*
X55587554Y-41240837D01*
X55461138Y-40935643D01*
X55277611Y-40660975D01*
X55076636Y-40460000D01*
X55277611Y-40259025D01*
X55461138Y-39984357D01*
X55587554Y-39679163D01*
X55652000Y-39355170D01*
X55652000Y-39024830D01*
X55587554Y-38700837D01*
X55461138Y-38395643D01*
X55277611Y-38120975D01*
X55076636Y-37920000D01*
X55277611Y-37719025D01*
X55461138Y-37444357D01*
X55587554Y-37139163D01*
X55652000Y-36815170D01*
X55652000Y-36484830D01*
X55587554Y-36160837D01*
X55461138Y-35855643D01*
X55277611Y-35580975D01*
X55076636Y-35380000D01*
X55277611Y-35179025D01*
X55461138Y-34904357D01*
X55587554Y-34599163D01*
X55652000Y-34275170D01*
X55652000Y-33944830D01*
X55587554Y-33620837D01*
X55461138Y-33315643D01*
X55277611Y-33040975D01*
X55044025Y-32807389D01*
X54769357Y-32623862D01*
X54464163Y-32497446D01*
X54140170Y-32433000D01*
X53809830Y-32433000D01*
X53485837Y-32497446D01*
X53180643Y-32623862D01*
X52905975Y-32807389D01*
X52705000Y-33008364D01*
X52536636Y-32840000D01*
X52737611Y-32639025D01*
X52921138Y-32364357D01*
X53047554Y-32059163D01*
X53112000Y-31735170D01*
X53112000Y-31404830D01*
X53047554Y-31080837D01*
X52921138Y-30775643D01*
X52737611Y-30500975D01*
X52536636Y-30300000D01*
X52705000Y-30131636D01*
X52905975Y-30332611D01*
X53180643Y-30516138D01*
X53485837Y-30642554D01*
X53809830Y-30707000D01*
X54140170Y-30707000D01*
X54464163Y-30642554D01*
X54769357Y-30516138D01*
X55044025Y-30332611D01*
X55277611Y-30099025D01*
X55461138Y-29824357D01*
X55587554Y-29519163D01*
X55652000Y-29195170D01*
X55652000Y-28864830D01*
X55587554Y-28540837D01*
X55461138Y-28235643D01*
X55277611Y-27960975D01*
X55076636Y-27760000D01*
X55277611Y-27559025D01*
X55461138Y-27284357D01*
X55587554Y-26979163D01*
X55652000Y-26655170D01*
X55652000Y-26324830D01*
X55587554Y-26000837D01*
X55461138Y-25695643D01*
X55277611Y-25420975D01*
X55044025Y-25187389D01*
X54769357Y-25003862D01*
X54464163Y-24877446D01*
X54140170Y-24813000D01*
X53809830Y-24813000D01*
X53485837Y-24877446D01*
X53180643Y-25003862D01*
X52905975Y-25187389D01*
X52705000Y-25388364D01*
X52536636Y-25220000D01*
X52737611Y-25019025D01*
X52921138Y-24744357D01*
X53047554Y-24439163D01*
X53112000Y-24115170D01*
X53112000Y-23784830D01*
X53047554Y-23460837D01*
X52921138Y-23155643D01*
X52737611Y-22880975D01*
X52536636Y-22680000D01*
X52705000Y-22511636D01*
X52905975Y-22712611D01*
X53180643Y-22896138D01*
X53485837Y-23022554D01*
X53809830Y-23087000D01*
X54140170Y-23087000D01*
X54464163Y-23022554D01*
X54769357Y-22896138D01*
X55044025Y-22712611D01*
X55269636Y-22487000D01*
X55372093Y-22487000D01*
X55425000Y-22492211D01*
X55477907Y-22487000D01*
X55477909Y-22487000D01*
X55636129Y-22471417D01*
X55839144Y-22409833D01*
X56026244Y-22309826D01*
X56190239Y-22175239D01*
X56223973Y-22134134D01*
X56298000Y-22060107D01*
X56298001Y-43221852D01*
X56301634Y-43258741D01*
X56301552Y-43270518D01*
X56302713Y-43282358D01*
X56341576Y-43652112D01*
X56357105Y-43727762D01*
X56371574Y-43803609D01*
X56375012Y-43814997D01*
X56484954Y-44170161D01*
X56514877Y-44241344D01*
X56543805Y-44312944D01*
X56549390Y-44323448D01*
X56726222Y-44650493D01*
X56769401Y-44714509D01*
X56811687Y-44779129D01*
X56819206Y-44788348D01*
X57056195Y-45074817D01*
X57110971Y-45129213D01*
X57165016Y-45184401D01*
X57174182Y-45191984D01*
X57462299Y-45426967D01*
X57526595Y-45469685D01*
X57590335Y-45513329D01*
X57600800Y-45518987D01*
X57929072Y-45693532D01*
X58000486Y-45722967D01*
X58071441Y-45753378D01*
X58082803Y-45756895D01*
X58082807Y-45756897D01*
X58082811Y-45756898D01*
X58438727Y-45864356D01*
X58514499Y-45879360D01*
X58590013Y-45895410D01*
X58601840Y-45896654D01*
X58601844Y-45896654D01*
X58971860Y-45932934D01*
X58971865Y-45932934D01*
X59013148Y-45937000D01*
X59648329Y-45937000D01*
X59893735Y-45961062D01*
X60089710Y-46020231D01*
X60270461Y-46116337D01*
X60429101Y-46245721D01*
X60559589Y-46403454D01*
X60656955Y-46583529D01*
X60717490Y-46779086D01*
X60743000Y-47021795D01*
X60743001Y-59655025D01*
X60674865Y-60483785D01*
X60480834Y-61256253D01*
X60163246Y-61986654D01*
X59730628Y-62655380D01*
X59194598Y-63244470D01*
X58569553Y-63738102D01*
X57872276Y-64123019D01*
X57121502Y-64388883D01*
X56322656Y-64531179D01*
X55859926Y-64553000D01*
X3216671Y-64553000D01*
X2724585Y-64504751D01*
X2291331Y-64373944D01*
X1891734Y-64161474D01*
X1541014Y-63875434D01*
X1252534Y-63526721D01*
X1037279Y-63128617D01*
X903450Y-62696282D01*
X852000Y-62206777D01*
X852000Y-3216671D01*
X900249Y-2724585D01*
X1031056Y-2291331D01*
X1243526Y-1891734D01*
X1529568Y-1541012D01*
X1878279Y-1252534D01*
X2276383Y-1037279D01*
X2708714Y-903450D01*
X3198215Y-852000D01*
X24929892Y-852000D01*
X24040865Y-1741028D01*
%TA.AperFunction,Conductor*%
D22*
G36*
X24040865Y-1741028D02*
G01*
X23999761Y-1774761D01*
X23865174Y-1938756D01*
X23765167Y-2125857D01*
X23703583Y-2328872D01*
X23688000Y-2487091D01*
X23682789Y-2540000D01*
X23688000Y-2592907D01*
X23688001Y-6932083D01*
X23682789Y-6985000D01*
X23703584Y-7196129D01*
X23765168Y-7399144D01*
X23865175Y-7586244D01*
X23999762Y-7750239D01*
X24040861Y-7783968D01*
X28133000Y-11876108D01*
X28133001Y-13945363D01*
X27940000Y-14138364D01*
X27739025Y-13937389D01*
X27464357Y-13753862D01*
X27159163Y-13627446D01*
X26835170Y-13563000D01*
X26504830Y-13563000D01*
X26180837Y-13627446D01*
X25875643Y-13753862D01*
X25600975Y-13937389D01*
X25457000Y-14081364D01*
X25457000Y-12765173D01*
X25463419Y-12699999D01*
X25457000Y-12634825D01*
X25457000Y-12634816D01*
X25437799Y-12439863D01*
X25361919Y-12189722D01*
X25238698Y-11959192D01*
X25238697Y-11959190D01*
X25114422Y-11807761D01*
X25114421Y-11807760D01*
X25072870Y-11757130D01*
X25022240Y-11715579D01*
X21738437Y-8431777D01*
X22015328Y-8154887D01*
X22075503Y-8105503D01*
X22272572Y-7865373D01*
X22419007Y-7591412D01*
X22509182Y-7294146D01*
X22532000Y-7062469D01*
X22532000Y-7062468D01*
X22539630Y-6985001D01*
X22532000Y-6907534D01*
X22532000Y-6768417D01*
X22617120Y-6760034D01*
X22773010Y-6712745D01*
X22916679Y-6635952D01*
X23042606Y-6532606D01*
X23145952Y-6406679D01*
X23222745Y-6263010D01*
X23270034Y-6107120D01*
X23286001Y-5945000D01*
X23286001Y-2945000D01*
X23270034Y-2782880D01*
X23222745Y-2626990D01*
X23145952Y-2483321D01*
X23042606Y-2357394D01*
X22916679Y-2254048D01*
X22773010Y-2177255D01*
X22617120Y-2129966D01*
X22455000Y-2113999D01*
X19455000Y-2113999D01*
X19292880Y-2129966D01*
X19136990Y-2177255D01*
X18993321Y-2254048D01*
X18867394Y-2357394D01*
X18764048Y-2483321D01*
X18687255Y-2626990D01*
X18639966Y-2782880D01*
X18623999Y-2945000D01*
X18623999Y-5945000D01*
X18639966Y-6107120D01*
X18687255Y-6263010D01*
X18764048Y-6406679D01*
X18867394Y-6532606D01*
X18993321Y-6635952D01*
X19045789Y-6663997D01*
X18624676Y-7085110D01*
X18624671Y-7085114D01*
X17761786Y-7948000D01*
X9602469Y-7948000D01*
X9525000Y-7940370D01*
X9215853Y-7970818D01*
X8918588Y-8060993D01*
X8644626Y-8207428D01*
X8540603Y-8292798D01*
X8404497Y-8404497D01*
X8355113Y-8464672D01*
X4654674Y-12165112D01*
X4594498Y-12214497D01*
X4499851Y-12329825D01*
X4397429Y-12454627D01*
X4250993Y-12728589D01*
X4160819Y-13025854D01*
X4130370Y-13335000D01*
X4138001Y-13412477D01*
X4138001Y-13892521D01*
X4130370Y-13970000D01*
X4138001Y-14047479D01*
X4138000Y-27862533D01*
X4130370Y-27940000D01*
X4138000Y-28017467D01*
X4138000Y-28017468D01*
X4160818Y-28249145D01*
X4250993Y-28546411D01*
X4397428Y-28820372D01*
X4594497Y-29060503D01*
X4654678Y-29109893D01*
X7720112Y-32175327D01*
X7769497Y-32235503D01*
X8009627Y-32432572D01*
X8283588Y-32579007D01*
X8580854Y-32669182D01*
X8812531Y-32692000D01*
X8812532Y-32692000D01*
X8889999Y-32699630D01*
X8967466Y-32692000D01*
X9741583Y-32692000D01*
X9749966Y-32777120D01*
X9797255Y-32933010D01*
X9874048Y-33076679D01*
X9977394Y-33202606D01*
X10103321Y-33305952D01*
X10246990Y-33382745D01*
X10402880Y-33430034D01*
X10565000Y-33446001D01*
X13565000Y-33446001D01*
X13727120Y-33430034D01*
X13883010Y-33382745D01*
X14026679Y-33305952D01*
X14152606Y-33202606D01*
X14255952Y-33076679D01*
X14332745Y-32933010D01*
X14380034Y-32777120D01*
X14396001Y-32615000D01*
X14396001Y-29615000D01*
X14380034Y-29452880D01*
X14332745Y-29296990D01*
X14255952Y-29153321D01*
X14152606Y-29027394D01*
X14026679Y-28924048D01*
X13883010Y-28847255D01*
X13727120Y-28799966D01*
X13565000Y-28783999D01*
X10565000Y-28783999D01*
X10402880Y-28799966D01*
X10246990Y-28847255D01*
X10103321Y-28924048D01*
X9977394Y-29027394D01*
X9874048Y-29153321D01*
X9797255Y-29296990D01*
X9749966Y-29452880D01*
X9741583Y-29538000D01*
X9543215Y-29538000D01*
X7292000Y-27286786D01*
X7292000Y-15547000D01*
X9741583Y-15547000D01*
X9749966Y-15632120D01*
X9797255Y-15788010D01*
X9874048Y-15931679D01*
X9977394Y-16057606D01*
X10103321Y-16160952D01*
X10246990Y-16237745D01*
X10402880Y-16285034D01*
X10565000Y-16301001D01*
X13565000Y-16301001D01*
X13727120Y-16285034D01*
X13883010Y-16237745D01*
X14026679Y-16160952D01*
X14152606Y-16057606D01*
X14255952Y-15931679D01*
X14332745Y-15788010D01*
X14380034Y-15632120D01*
X14396001Y-15470000D01*
X14396001Y-12470000D01*
X14380034Y-12307880D01*
X14332745Y-12151990D01*
X14255952Y-12008321D01*
X14152606Y-11882394D01*
X14026679Y-11779048D01*
X13883010Y-11702255D01*
X13727120Y-11654966D01*
X13565000Y-11638999D01*
X10565000Y-11638999D01*
X10402880Y-11654966D01*
X10246990Y-11702255D01*
X10103321Y-11779048D01*
X9977394Y-11882394D01*
X9874048Y-12008321D01*
X9797255Y-12151990D01*
X9749966Y-12307880D01*
X9741583Y-12393000D01*
X8887215Y-12393000D01*
X10178215Y-11102000D01*
X18337533Y-11102000D01*
X18415000Y-11109630D01*
X18492467Y-11102000D01*
X18492469Y-11102000D01*
X18724146Y-11079182D01*
X19021412Y-10989007D01*
X19295373Y-10842572D01*
X19535503Y-10645503D01*
X19584892Y-10585322D01*
X19861777Y-10308437D01*
X22803001Y-13249662D01*
X22803000Y-14207475D01*
X22643862Y-14445643D01*
X22517446Y-14750837D01*
X22453000Y-15074830D01*
X22453000Y-15405170D01*
X22517446Y-15729163D01*
X22643862Y-16034357D01*
X22827389Y-16309025D01*
X23060975Y-16542611D01*
X23335643Y-16726138D01*
X23640837Y-16852554D01*
X23964830Y-16917000D01*
X24295170Y-16917000D01*
X24619163Y-16852554D01*
X24924357Y-16726138D01*
X25199025Y-16542611D01*
X25400000Y-16341636D01*
X25600975Y-16542611D01*
X25875643Y-16726138D01*
X26180837Y-16852554D01*
X26504830Y-16917000D01*
X26835170Y-16917000D01*
X27159163Y-16852554D01*
X27464357Y-16726138D01*
X27739025Y-16542611D01*
X27940000Y-16341636D01*
X28140975Y-16542611D01*
X28415643Y-16726138D01*
X28720837Y-16852554D01*
X29044830Y-16917000D01*
X29375170Y-16917000D01*
X29699163Y-16852554D01*
X30004357Y-16726138D01*
X30279025Y-16542611D01*
X30512611Y-16309025D01*
X30696138Y-16034357D01*
X30822554Y-15729163D01*
X30887000Y-15405170D01*
X30887000Y-15074830D01*
X30822554Y-14750837D01*
X30696138Y-14445643D01*
X30512611Y-14170975D01*
X30287000Y-13945364D01*
X30287000Y-11482906D01*
X30292211Y-11429999D01*
X30285965Y-11366580D01*
X30271417Y-11218871D01*
X30209833Y-11015856D01*
X30109826Y-10828756D01*
X29975239Y-10664761D01*
X29934140Y-10631032D01*
X25842000Y-6538893D01*
X25842000Y-2986107D01*
X26481108Y-2347000D01*
X31580059Y-2347000D01*
X31567394Y-2357394D01*
X31464048Y-2483321D01*
X31387255Y-2626990D01*
X31339966Y-2782880D01*
X31323999Y-2945000D01*
X31323999Y-5945000D01*
X31339966Y-6107120D01*
X31387255Y-6263010D01*
X31464048Y-6406679D01*
X31567394Y-6532606D01*
X31693321Y-6635952D01*
X31836990Y-6712745D01*
X31992880Y-6760034D01*
X32155000Y-6776001D01*
X35155000Y-6776001D01*
X35317120Y-6760034D01*
X35473010Y-6712745D01*
X35616679Y-6635952D01*
X35742606Y-6532606D01*
X35845952Y-6406679D01*
X35922745Y-6263010D01*
X35970034Y-6107120D01*
X35986001Y-5945000D01*
X35986001Y-5137000D01*
X46757840Y-5137000D01*
X48863077Y-7242238D01*
X48904630Y-7292870D01*
X48955260Y-7334421D01*
X48955261Y-7334422D01*
X49014453Y-7383000D01*
X47994661Y-7383000D01*
X47339425Y-6727765D01*
X47297870Y-6677130D01*
X47095808Y-6511302D01*
X46865278Y-6388081D01*
X46615137Y-6312201D01*
X46420184Y-6293000D01*
X46420174Y-6293000D01*
X46355000Y-6286581D01*
X46289826Y-6293000D01*
X45978378Y-6293000D01*
X45887606Y-6182394D01*
X45761679Y-6079048D01*
X45618010Y-6002255D01*
X45462120Y-5954966D01*
X45300000Y-5938999D01*
X43600000Y-5938999D01*
X43437880Y-5954966D01*
X43281990Y-6002255D01*
X43138321Y-6079048D01*
X43012394Y-6182394D01*
X42921622Y-6293000D01*
X42168378Y-6293000D01*
X42077606Y-6182394D01*
X41951679Y-6079048D01*
X41808010Y-6002255D01*
X41652120Y-5954966D01*
X41490000Y-5938999D01*
X39790000Y-5938999D01*
X39627880Y-5954966D01*
X39471990Y-6002255D01*
X39328321Y-6079048D01*
X39202394Y-6182394D01*
X39099048Y-6308321D01*
X39022255Y-6451990D01*
X38974966Y-6607880D01*
X38958999Y-6770000D01*
X38958999Y-8470000D01*
X38974966Y-8632120D01*
X39022255Y-8788010D01*
X39099048Y-8931679D01*
X39202394Y-9057606D01*
X39328321Y-9160952D01*
X39471990Y-9237745D01*
X39627880Y-9285034D01*
X39790000Y-9301001D01*
X41490000Y-9301001D01*
X41652120Y-9285034D01*
X41808010Y-9237745D01*
X41951679Y-9160952D01*
X42077606Y-9057606D01*
X42168378Y-8947000D01*
X42921622Y-8947000D01*
X43012394Y-9057606D01*
X43138321Y-9160952D01*
X43281990Y-9237745D01*
X43437880Y-9285034D01*
X43600000Y-9301001D01*
X45300000Y-9301001D01*
X45462120Y-9285034D01*
X45618010Y-9237745D01*
X45761679Y-9160952D01*
X45887606Y-9057606D01*
X45900380Y-9042041D01*
X46460579Y-9602240D01*
X46502130Y-9652870D01*
X46552760Y-9694421D01*
X46552761Y-9694422D01*
X46704191Y-9818698D01*
X46934722Y-9941919D01*
X47184863Y-10017799D01*
X47379816Y-10037000D01*
X47379826Y-10037000D01*
X47445000Y-10043419D01*
X47510174Y-10037000D01*
X49906622Y-10037000D01*
X49997394Y-10147606D01*
X50028337Y-10173000D01*
X48492909Y-10173000D01*
X48440000Y-10167789D01*
X48228870Y-10188583D01*
X48167286Y-10207265D01*
X48025856Y-10250167D01*
X47938762Y-10296720D01*
X47838755Y-10350174D01*
X47793883Y-10387000D01*
X47674761Y-10484761D01*
X47641032Y-10525860D01*
X46543893Y-11623000D01*
X45744636Y-11623000D01*
X45519025Y-11397389D01*
X45244357Y-11213862D01*
X44939163Y-11087446D01*
X44615170Y-11023000D01*
X44284830Y-11023000D01*
X43960837Y-11087446D01*
X43655643Y-11213862D01*
X43380975Y-11397389D01*
X43155364Y-11623000D01*
X41934636Y-11623000D01*
X41709025Y-11397389D01*
X41434357Y-11213862D01*
X41129163Y-11087446D01*
X40805170Y-11023000D01*
X40474830Y-11023000D01*
X40150837Y-11087446D01*
X39845643Y-11213862D01*
X39570975Y-11397389D01*
X39337389Y-11630975D01*
X39153862Y-11905643D01*
X39027446Y-12210837D01*
X38963000Y-12534830D01*
X38963000Y-12865170D01*
X39027446Y-13189163D01*
X39153862Y-13494357D01*
X39337389Y-13769025D01*
X39538364Y-13970000D01*
X39337389Y-14170975D01*
X39153862Y-14445643D01*
X39027446Y-14750837D01*
X38963000Y-15074830D01*
X38963000Y-15405170D01*
X39027446Y-15729163D01*
X39153862Y-16034357D01*
X39337389Y-16309025D01*
X39570975Y-16542611D01*
X39845643Y-16726138D01*
X40150837Y-16852554D01*
X40474830Y-16917000D01*
X40805170Y-16917000D01*
X41129163Y-16852554D01*
X41434357Y-16726138D01*
X41709025Y-16542611D01*
X41934636Y-16317000D01*
X43155364Y-16317000D01*
X43380975Y-16542611D01*
X43655643Y-16726138D01*
X43960837Y-16852554D01*
X44284830Y-16917000D01*
X44615170Y-16917000D01*
X44939163Y-16852554D01*
X45244357Y-16726138D01*
X45519025Y-16542611D01*
X45744636Y-16317000D01*
X48207093Y-16317000D01*
X48260000Y-16322211D01*
X48312907Y-16317000D01*
X48312909Y-16317000D01*
X48471129Y-16301417D01*
X48674144Y-16239833D01*
X48861244Y-16139826D01*
X49025239Y-16005239D01*
X49058972Y-15964135D01*
X50148236Y-14874872D01*
X50333364Y-15060000D01*
X50132389Y-15260975D01*
X50010779Y-15442978D01*
X49953871Y-15448583D01*
X49750856Y-15510167D01*
X49563756Y-15610174D01*
X49399761Y-15744761D01*
X49366032Y-15785860D01*
X45111147Y-20040746D01*
X44983010Y-19972255D01*
X44827120Y-19924966D01*
X44665000Y-19908999D01*
X42965000Y-19908999D01*
X42802880Y-19924966D01*
X42646990Y-19972255D01*
X42503321Y-20049048D01*
X42377394Y-20152394D01*
X42274048Y-20278321D01*
X42197255Y-20421990D01*
X42149966Y-20577880D01*
X42133999Y-20740000D01*
X42133999Y-22440000D01*
X42149966Y-22602120D01*
X42197255Y-22758010D01*
X42274048Y-22901679D01*
X42377394Y-23027606D01*
X42478980Y-23110976D01*
X42328862Y-23335643D01*
X42202446Y-23640837D01*
X42138000Y-23964830D01*
X42138000Y-24295170D01*
X42202446Y-24619163D01*
X42328862Y-24924357D01*
X42512389Y-25199025D01*
X42713364Y-25400000D01*
X42512389Y-25600975D01*
X42328862Y-25875643D01*
X42202446Y-26180837D01*
X42138000Y-26504830D01*
X42138000Y-26835170D01*
X42202446Y-27159163D01*
X42328862Y-27464357D01*
X42512389Y-27739025D01*
X42713364Y-27940000D01*
X42512389Y-28140975D01*
X42328862Y-28415643D01*
X42202446Y-28720837D01*
X42138000Y-29044830D01*
X42138000Y-29375170D01*
X42202446Y-29699163D01*
X42328862Y-30004357D01*
X42512389Y-30279025D01*
X42713364Y-30480000D01*
X42512389Y-30680975D01*
X42328862Y-30955643D01*
X42202446Y-31260837D01*
X42138000Y-31584830D01*
X42138000Y-31915170D01*
X42202446Y-32239163D01*
X42328862Y-32544357D01*
X42512389Y-32819025D01*
X42713364Y-33020000D01*
X42512389Y-33220975D01*
X42328862Y-33495643D01*
X42202446Y-33800837D01*
X42138000Y-34124830D01*
X42138000Y-34455170D01*
X42202446Y-34779163D01*
X42328862Y-35084357D01*
X42512389Y-35359025D01*
X42713364Y-35560000D01*
X42512389Y-35760975D01*
X42328862Y-36035643D01*
X42202446Y-36340837D01*
X42138000Y-36664830D01*
X42138000Y-36995170D01*
X42202446Y-37319163D01*
X42328862Y-37624357D01*
X42512389Y-37899025D01*
X42713364Y-38100000D01*
X42512389Y-38300975D01*
X42328862Y-38575643D01*
X42202446Y-38880837D01*
X42138000Y-39204830D01*
X42138000Y-39535170D01*
X42202446Y-39859163D01*
X42328862Y-40164357D01*
X42512389Y-40439025D01*
X42745975Y-40672611D01*
X43020643Y-40856138D01*
X43325837Y-40982554D01*
X43649830Y-41047000D01*
X43968893Y-41047000D01*
X48096032Y-45174140D01*
X48129761Y-45215239D01*
X48293756Y-45349826D01*
X48480856Y-45449833D01*
X48683871Y-45511417D01*
X48842091Y-45527000D01*
X48842093Y-45527000D01*
X48895000Y-45532211D01*
X48947907Y-45527000D01*
X50320364Y-45527000D01*
X50333364Y-45540000D01*
X50140364Y-45733000D01*
X45351108Y-45733000D01*
X39812000Y-40193893D01*
X39812000Y-24182906D01*
X39817211Y-24129999D01*
X39812000Y-24077091D01*
X39796417Y-23918871D01*
X39734833Y-23715856D01*
X39634826Y-23528756D01*
X39500239Y-23364761D01*
X39459140Y-23331032D01*
X38263972Y-22135865D01*
X38230239Y-22094761D01*
X38066244Y-21960174D01*
X37879144Y-21860167D01*
X37676129Y-21798583D01*
X37517909Y-21783000D01*
X37517907Y-21783000D01*
X37465000Y-21777789D01*
X37412093Y-21783000D01*
X25313739Y-21783000D01*
X25310034Y-21745380D01*
X25262745Y-21589490D01*
X25185952Y-21445821D01*
X25082606Y-21319894D01*
X24956679Y-21216548D01*
X24813010Y-21139755D01*
X24657120Y-21092466D01*
X24495000Y-21076499D01*
X22495000Y-21076499D01*
X22332880Y-21092466D01*
X22176990Y-21139755D01*
X22033321Y-21216548D01*
X21907394Y-21319894D01*
X21804048Y-21445821D01*
X21727255Y-21589490D01*
X21679966Y-21745380D01*
X21663999Y-21907500D01*
X21663999Y-23812500D01*
X21665033Y-23823000D01*
X21608215Y-23823000D01*
X15774893Y-17989679D01*
X15725503Y-17929497D01*
X15485373Y-17732428D01*
X15211412Y-17585993D01*
X14914146Y-17495818D01*
X14682469Y-17473000D01*
X14682467Y-17473000D01*
X14605000Y-17465370D01*
X14527533Y-17473000D01*
X13778875Y-17473000D01*
X13548376Y-17242501D01*
X13167248Y-16987840D01*
X12743761Y-16812426D01*
X12294189Y-16723000D01*
X11835811Y-16723000D01*
X11386239Y-16812426D01*
X10962752Y-16987840D01*
X10581624Y-17242501D01*
X10257501Y-17566624D01*
X10002840Y-17947752D01*
X9827426Y-18371239D01*
X9738000Y-18820811D01*
X9738000Y-19279189D01*
X9827426Y-19728761D01*
X10002840Y-20152248D01*
X10257501Y-20533376D01*
X10581624Y-20857499D01*
X10962752Y-21112160D01*
X11386239Y-21287574D01*
X11835811Y-21377000D01*
X12294189Y-21377000D01*
X12743761Y-21287574D01*
X13167248Y-21112160D01*
X13548376Y-20857499D01*
X13778875Y-20627000D01*
X13951786Y-20627000D01*
X19785112Y-26460327D01*
X19834497Y-26520503D01*
X20074627Y-26717572D01*
X20348588Y-26864007D01*
X20645854Y-26954182D01*
X20877531Y-26977000D01*
X20877532Y-26977000D01*
X20954999Y-26984630D01*
X21032466Y-26977000D01*
X22622908Y-26977000D01*
X22763220Y-27051998D01*
X23098657Y-27153752D01*
X23360081Y-27179500D01*
X23629919Y-27179500D01*
X23891343Y-27153752D01*
X24226780Y-27051998D01*
X24535921Y-26886759D01*
X24806885Y-26664385D01*
X25029259Y-26393421D01*
X25194498Y-26084280D01*
X25296252Y-25748843D01*
X25330610Y-25400000D01*
X25296252Y-25051157D01*
X25194498Y-24715720D01*
X25043120Y-24432511D01*
X25082606Y-24400106D01*
X25185952Y-24274179D01*
X25262745Y-24130510D01*
X25310034Y-23974620D01*
X25313739Y-23937000D01*
X37018893Y-23937000D01*
X37658000Y-24576108D01*
X37658001Y-40587083D01*
X37652789Y-40640000D01*
X37668800Y-40802554D01*
X37673584Y-40851129D01*
X37735168Y-41054144D01*
X37835175Y-41241244D01*
X37969762Y-41405239D01*
X38010861Y-41438968D01*
X44106032Y-47534140D01*
X44139761Y-47575239D01*
X44180858Y-47608966D01*
X44303755Y-47709826D01*
X44349914Y-47734498D01*
X44490856Y-47809833D01*
X44619969Y-47848999D01*
X44693870Y-47871417D01*
X44905000Y-47892211D01*
X44957909Y-47887000D01*
X50140364Y-47887000D01*
X50333364Y-48080000D01*
X50140364Y-48273000D01*
X42811108Y-48273000D01*
X34732000Y-40193893D01*
X34732000Y-34977906D01*
X34737211Y-34924999D01*
X34732000Y-34872091D01*
X34716417Y-34713871D01*
X34654833Y-34510856D01*
X34554826Y-34323756D01*
X34420239Y-34159761D01*
X34379140Y-34126032D01*
X33183972Y-32930865D01*
X33150239Y-32889761D01*
X32986244Y-32755174D01*
X32799144Y-32655167D01*
X32596129Y-32593583D01*
X32437909Y-32578000D01*
X32437907Y-32578000D01*
X32385000Y-32572789D01*
X32332093Y-32578000D01*
X25313739Y-32578000D01*
X25310034Y-32540380D01*
X25262745Y-32384490D01*
X25185952Y-32240821D01*
X25082606Y-32114894D01*
X24956679Y-32011548D01*
X24813010Y-31934755D01*
X24657120Y-31887466D01*
X24495000Y-31871499D01*
X22495000Y-31871499D01*
X22332880Y-31887466D01*
X22176990Y-31934755D01*
X22033321Y-32011548D01*
X21907394Y-32114894D01*
X21804048Y-32240821D01*
X21727255Y-32384490D01*
X21679966Y-32540380D01*
X21663999Y-32702500D01*
X21663999Y-34607500D01*
X21665033Y-34618000D01*
X13778875Y-34618000D01*
X13548376Y-34387501D01*
X13167248Y-34132840D01*
X12743761Y-33957426D01*
X12294189Y-33868000D01*
X11835811Y-33868000D01*
X11386239Y-33957426D01*
X10962752Y-34132840D01*
X10581624Y-34387501D01*
X10257501Y-34711624D01*
X10002840Y-35092752D01*
X9827426Y-35516239D01*
X9738000Y-35965811D01*
X9738000Y-36424189D01*
X9827426Y-36873761D01*
X10002840Y-37297248D01*
X10257501Y-37678376D01*
X10581624Y-38002499D01*
X10962752Y-38257160D01*
X11386239Y-38432574D01*
X11835811Y-38522000D01*
X12294189Y-38522000D01*
X12743761Y-38432574D01*
X13167248Y-38257160D01*
X13548376Y-38002499D01*
X13778875Y-37772000D01*
X22622908Y-37772000D01*
X22763220Y-37846998D01*
X23098657Y-37948752D01*
X23360081Y-37974500D01*
X23629919Y-37974500D01*
X23891343Y-37948752D01*
X24226780Y-37846998D01*
X24535921Y-37681759D01*
X24806885Y-37459385D01*
X25029259Y-37188421D01*
X25194498Y-36879280D01*
X25296252Y-36543843D01*
X25330610Y-36195000D01*
X25296252Y-35846157D01*
X25194498Y-35510720D01*
X25043120Y-35227511D01*
X25082606Y-35195106D01*
X25185952Y-35069179D01*
X25262745Y-34925510D01*
X25310034Y-34769620D01*
X25313739Y-34732000D01*
X31938893Y-34732000D01*
X32578001Y-35371109D01*
X32578000Y-40587093D01*
X32572789Y-40640000D01*
X32578000Y-40692907D01*
X32578000Y-40692908D01*
X32593583Y-40851128D01*
X32655167Y-41054143D01*
X32755174Y-41241244D01*
X32889761Y-41405239D01*
X32930866Y-41438973D01*
X41566032Y-50074140D01*
X41599761Y-50115239D01*
X41763756Y-50249826D01*
X41950856Y-50349833D01*
X42153871Y-50411417D01*
X42312091Y-50427000D01*
X42312092Y-50427000D01*
X42364999Y-50432211D01*
X42417906Y-50427000D01*
X50140364Y-50427000D01*
X50333364Y-50620000D01*
X50140364Y-50813000D01*
X39001108Y-50813000D01*
X31913973Y-43725866D01*
X31880239Y-43684761D01*
X31716244Y-43550174D01*
X31529144Y-43450167D01*
X31326129Y-43388583D01*
X31167909Y-43373000D01*
X31167907Y-43373000D01*
X31115000Y-43367789D01*
X31062093Y-43373000D01*
X25313739Y-43373000D01*
X25310034Y-43335380D01*
X25262745Y-43179490D01*
X25185952Y-43035821D01*
X25082606Y-42909894D01*
X24956679Y-42806548D01*
X24813010Y-42729755D01*
X24657120Y-42682466D01*
X24495000Y-42666499D01*
X22495000Y-42666499D01*
X22332880Y-42682466D01*
X22176990Y-42729755D01*
X22033321Y-42806548D01*
X21907394Y-42909894D01*
X21804048Y-43035821D01*
X21727255Y-43179490D01*
X21679966Y-43335380D01*
X21663999Y-43497500D01*
X21663999Y-45402500D01*
X21665033Y-45413000D01*
X20973215Y-45413000D01*
X15774893Y-40214679D01*
X15725503Y-40154497D01*
X15485373Y-39957428D01*
X15211412Y-39810993D01*
X14914146Y-39720818D01*
X14682469Y-39698000D01*
X14682467Y-39698000D01*
X14605000Y-39690370D01*
X14527533Y-39698000D01*
X13778875Y-39698000D01*
X13548376Y-39467501D01*
X13167248Y-39212840D01*
X12743761Y-39037426D01*
X12294189Y-38948000D01*
X11835811Y-38948000D01*
X11386239Y-39037426D01*
X10962752Y-39212840D01*
X10581624Y-39467501D01*
X10257501Y-39791624D01*
X10002840Y-40172752D01*
X9827426Y-40596239D01*
X9738000Y-41045811D01*
X9738000Y-41504189D01*
X9827426Y-41953761D01*
X10002840Y-42377248D01*
X10257501Y-42758376D01*
X10581624Y-43082499D01*
X10962752Y-43337160D01*
X11386239Y-43512574D01*
X11835811Y-43602000D01*
X12294189Y-43602000D01*
X12743761Y-43512574D01*
X13167248Y-43337160D01*
X13548376Y-43082499D01*
X13778875Y-42852000D01*
X13951786Y-42852000D01*
X19150112Y-48050327D01*
X19199497Y-48110503D01*
X19259671Y-48159886D01*
X19439626Y-48307572D01*
X19541436Y-48361990D01*
X19713588Y-48454007D01*
X19822351Y-48487000D01*
X20010853Y-48544182D01*
X20320000Y-48574630D01*
X20397469Y-48567000D01*
X22622908Y-48567000D01*
X22763220Y-48641998D01*
X23098657Y-48743752D01*
X23360081Y-48769500D01*
X23629919Y-48769500D01*
X23891343Y-48743752D01*
X24226780Y-48641998D01*
X24535921Y-48476759D01*
X24806885Y-48254385D01*
X25029259Y-47983421D01*
X25194498Y-47674280D01*
X25296252Y-47338843D01*
X25330610Y-46990000D01*
X25296252Y-46641157D01*
X25194498Y-46305720D01*
X25043120Y-46022511D01*
X25082606Y-45990106D01*
X25185952Y-45864179D01*
X25262745Y-45720510D01*
X25310034Y-45564620D01*
X25313739Y-45527000D01*
X30668893Y-45527000D01*
X37756032Y-52614140D01*
X37789761Y-52655239D01*
X37953756Y-52789826D01*
X38140856Y-52889833D01*
X38343871Y-52951417D01*
X38502091Y-52967000D01*
X38502093Y-52967000D01*
X38555000Y-52972211D01*
X38607907Y-52967000D01*
X50140364Y-52967000D01*
X50333364Y-53160000D01*
X50140364Y-53353000D01*
X28172906Y-53353000D01*
X28119999Y-53347789D01*
X28067092Y-53353000D01*
X28067091Y-53353000D01*
X27908871Y-53368583D01*
X27705856Y-53430167D01*
X27518756Y-53530174D01*
X27354761Y-53664761D01*
X27321031Y-53705861D01*
X26858893Y-54168000D01*
X25313739Y-54168000D01*
X25310034Y-54130380D01*
X25262745Y-53974490D01*
X25185952Y-53830821D01*
X25082606Y-53704894D01*
X24956679Y-53601548D01*
X24813010Y-53524755D01*
X24657120Y-53477466D01*
X24495000Y-53461499D01*
X22495000Y-53461499D01*
X22332880Y-53477466D01*
X22176990Y-53524755D01*
X22033321Y-53601548D01*
X21907394Y-53704894D01*
X21804048Y-53830821D01*
X21727255Y-53974490D01*
X21679966Y-54130380D01*
X21663999Y-54292500D01*
X21663999Y-56197500D01*
X21665033Y-56208000D01*
X21648215Y-56208000D01*
X13642000Y-48201786D01*
X13642000Y-48068875D01*
X13872499Y-47838376D01*
X14127160Y-47457248D01*
X14302574Y-47033761D01*
X14392000Y-46584189D01*
X14392000Y-46125811D01*
X14302574Y-45676239D01*
X14127160Y-45252752D01*
X13872499Y-44871624D01*
X13548376Y-44547501D01*
X13167248Y-44292840D01*
X12743761Y-44117426D01*
X12294189Y-44028000D01*
X11835811Y-44028000D01*
X11386239Y-44117426D01*
X10962752Y-44292840D01*
X10581624Y-44547501D01*
X10257501Y-44871624D01*
X10002840Y-45252752D01*
X9827426Y-45676239D01*
X9738000Y-46125811D01*
X9738000Y-46584189D01*
X9827426Y-47033761D01*
X10002840Y-47457248D01*
X10257501Y-47838376D01*
X10488001Y-48068876D01*
X10488001Y-48777524D01*
X10480370Y-48855000D01*
X10510819Y-49164146D01*
X10600993Y-49461411D01*
X10747429Y-49735373D01*
X10944498Y-49975503D01*
X11004674Y-50024888D01*
X19825112Y-58845327D01*
X19874497Y-58905503D01*
X20114627Y-59102572D01*
X20388588Y-59249007D01*
X20685854Y-59339182D01*
X20917531Y-59362000D01*
X20917532Y-59362000D01*
X20994999Y-59369630D01*
X21072466Y-59362000D01*
X22622908Y-59362000D01*
X22763220Y-59436998D01*
X23098657Y-59538752D01*
X23360081Y-59564500D01*
X23629919Y-59564500D01*
X23891343Y-59538752D01*
X24226780Y-59436998D01*
X24535921Y-59271759D01*
X24806885Y-59049385D01*
X25029259Y-58778421D01*
X25194498Y-58469280D01*
X25296252Y-58133843D01*
X25330610Y-57785000D01*
X25296252Y-57436157D01*
X25194498Y-57100720D01*
X25043120Y-56817511D01*
X25082606Y-56785106D01*
X25185952Y-56659179D01*
X25262745Y-56515510D01*
X25310034Y-56359620D01*
X25313739Y-56322000D01*
X27252093Y-56322000D01*
X27305000Y-56327211D01*
X27357907Y-56322000D01*
X27357909Y-56322000D01*
X27516129Y-56306417D01*
X27719144Y-56244833D01*
X27906244Y-56144826D01*
X28070239Y-56010239D01*
X28103972Y-55969135D01*
X28566108Y-55507000D01*
X50140364Y-55507000D01*
X50365975Y-55732611D01*
X50640643Y-55916138D01*
X50945837Y-56042554D01*
X51269830Y-56107000D01*
X51600170Y-56107000D01*
X51924163Y-56042554D01*
X52229357Y-55916138D01*
X52504025Y-55732611D01*
X52705000Y-55531636D01*
X52873364Y-55700000D01*
X52672389Y-55900975D01*
X52488862Y-56175643D01*
X52362446Y-56480837D01*
X52298000Y-56804830D01*
X52298000Y-57135170D01*
X52362446Y-57459163D01*
X52488862Y-57764357D01*
X52672389Y-58039025D01*
X52905975Y-58272611D01*
X53180643Y-58456138D01*
X53485837Y-58582554D01*
X53809830Y-58647000D01*
X54140170Y-58647000D01*
X54464163Y-58582554D01*
X54769357Y-58456138D01*
X55044025Y-58272611D01*
X55269636Y-58047000D01*
X57002446Y-58047000D01*
X57117389Y-58219025D01*
X57350975Y-58452611D01*
X57625643Y-58636138D01*
X57930837Y-58762554D01*
X58254830Y-58827000D01*
X58585170Y-58827000D01*
X58909163Y-58762554D01*
X59214357Y-58636138D01*
X59489025Y-58452611D01*
X59722611Y-58219025D01*
X59906138Y-57944357D01*
X60032554Y-57639163D01*
X60097000Y-57315170D01*
X60097000Y-56984830D01*
X60032554Y-56660837D01*
X59906138Y-56355643D01*
X59722611Y-56080975D01*
X59521636Y-55880000D01*
X59722611Y-55679025D01*
X59906138Y-55404357D01*
X60032554Y-55099163D01*
X60097000Y-54775170D01*
X60097000Y-54444830D01*
X60032554Y-54120837D01*
X59906138Y-53815643D01*
X59722611Y-53540975D01*
X59521636Y-53340000D01*
X59722611Y-53139025D01*
X59906138Y-52864357D01*
X60032554Y-52559163D01*
X60097000Y-52235170D01*
X60097000Y-51904830D01*
X60032554Y-51580837D01*
X59906138Y-51275643D01*
X59756020Y-51050976D01*
X59857606Y-50967606D01*
X59960952Y-50841679D01*
X60037745Y-50698010D01*
X60085034Y-50542120D01*
X60101001Y-50380000D01*
X60101001Y-48680000D01*
X60085034Y-48517880D01*
X60037745Y-48361990D01*
X59960952Y-48218321D01*
X59857606Y-48092394D01*
X59731679Y-47989048D01*
X59588010Y-47912255D01*
X59432120Y-47864966D01*
X59270000Y-47848999D01*
X58262107Y-47848999D01*
X56498973Y-46085866D01*
X56465239Y-46044761D01*
X56301244Y-45910174D01*
X56114144Y-45810167D01*
X55911129Y-45748583D01*
X55752909Y-45733000D01*
X55752907Y-45733000D01*
X55700000Y-45727789D01*
X55647093Y-45733000D01*
X55269636Y-45733000D01*
X55044025Y-45507389D01*
X54769357Y-45323862D01*
X54464163Y-45197446D01*
X54140170Y-45133000D01*
X53809830Y-45133000D01*
X53485837Y-45197446D01*
X53180643Y-45323862D01*
X52905975Y-45507389D01*
X52705000Y-45708364D01*
X52536636Y-45540000D01*
X52737611Y-45339025D01*
X52921138Y-45064357D01*
X53047554Y-44759163D01*
X53112000Y-44435170D01*
X53112000Y-44104830D01*
X53047554Y-43780837D01*
X52921138Y-43475643D01*
X52737611Y-43200975D01*
X52536636Y-43000000D01*
X52705000Y-42831636D01*
X52905975Y-43032611D01*
X53180643Y-43216138D01*
X53485837Y-43342554D01*
X53809830Y-43407000D01*
X54140170Y-43407000D01*
X54464163Y-43342554D01*
X54769357Y-43216138D01*
X55044025Y-43032611D01*
X55277611Y-42799025D01*
X55461138Y-42524357D01*
X55587554Y-42219163D01*
X55652000Y-41895170D01*
X55652000Y-41564830D01*
X55587554Y-41240837D01*
X55461138Y-40935643D01*
X55277611Y-40660975D01*
X55076636Y-40460000D01*
X55277611Y-40259025D01*
X55461138Y-39984357D01*
X55587554Y-39679163D01*
X55652000Y-39355170D01*
X55652000Y-39024830D01*
X55587554Y-38700837D01*
X55461138Y-38395643D01*
X55277611Y-38120975D01*
X55076636Y-37920000D01*
X55277611Y-37719025D01*
X55461138Y-37444357D01*
X55587554Y-37139163D01*
X55652000Y-36815170D01*
X55652000Y-36484830D01*
X55587554Y-36160837D01*
X55461138Y-35855643D01*
X55277611Y-35580975D01*
X55076636Y-35380000D01*
X55277611Y-35179025D01*
X55461138Y-34904357D01*
X55587554Y-34599163D01*
X55652000Y-34275170D01*
X55652000Y-33944830D01*
X55587554Y-33620837D01*
X55461138Y-33315643D01*
X55277611Y-33040975D01*
X55044025Y-32807389D01*
X54769357Y-32623862D01*
X54464163Y-32497446D01*
X54140170Y-32433000D01*
X53809830Y-32433000D01*
X53485837Y-32497446D01*
X53180643Y-32623862D01*
X52905975Y-32807389D01*
X52705000Y-33008364D01*
X52536636Y-32840000D01*
X52737611Y-32639025D01*
X52921138Y-32364357D01*
X53047554Y-32059163D01*
X53112000Y-31735170D01*
X53112000Y-31404830D01*
X53047554Y-31080837D01*
X52921138Y-30775643D01*
X52737611Y-30500975D01*
X52536636Y-30300000D01*
X52705000Y-30131636D01*
X52905975Y-30332611D01*
X53180643Y-30516138D01*
X53485837Y-30642554D01*
X53809830Y-30707000D01*
X54140170Y-30707000D01*
X54464163Y-30642554D01*
X54769357Y-30516138D01*
X55044025Y-30332611D01*
X55277611Y-30099025D01*
X55461138Y-29824357D01*
X55587554Y-29519163D01*
X55652000Y-29195170D01*
X55652000Y-28864830D01*
X55587554Y-28540837D01*
X55461138Y-28235643D01*
X55277611Y-27960975D01*
X55076636Y-27760000D01*
X55277611Y-27559025D01*
X55461138Y-27284357D01*
X55587554Y-26979163D01*
X55652000Y-26655170D01*
X55652000Y-26324830D01*
X55587554Y-26000837D01*
X55461138Y-25695643D01*
X55277611Y-25420975D01*
X55044025Y-25187389D01*
X54769357Y-25003862D01*
X54464163Y-24877446D01*
X54140170Y-24813000D01*
X53809830Y-24813000D01*
X53485837Y-24877446D01*
X53180643Y-25003862D01*
X52905975Y-25187389D01*
X52705000Y-25388364D01*
X52536636Y-25220000D01*
X52737611Y-25019025D01*
X52921138Y-24744357D01*
X53047554Y-24439163D01*
X53112000Y-24115170D01*
X53112000Y-23784830D01*
X53047554Y-23460837D01*
X52921138Y-23155643D01*
X52737611Y-22880975D01*
X52536636Y-22680000D01*
X52705000Y-22511636D01*
X52905975Y-22712611D01*
X53180643Y-22896138D01*
X53485837Y-23022554D01*
X53809830Y-23087000D01*
X54140170Y-23087000D01*
X54464163Y-23022554D01*
X54769357Y-22896138D01*
X55044025Y-22712611D01*
X55269636Y-22487000D01*
X55372093Y-22487000D01*
X55425000Y-22492211D01*
X55477907Y-22487000D01*
X55477909Y-22487000D01*
X55636129Y-22471417D01*
X55839144Y-22409833D01*
X56026244Y-22309826D01*
X56190239Y-22175239D01*
X56223973Y-22134134D01*
X56298000Y-22060107D01*
X56298001Y-43221852D01*
X56301634Y-43258741D01*
X56301552Y-43270518D01*
X56302713Y-43282358D01*
X56341576Y-43652112D01*
X56357105Y-43727762D01*
X56371574Y-43803609D01*
X56375012Y-43814997D01*
X56484954Y-44170161D01*
X56514877Y-44241344D01*
X56543805Y-44312944D01*
X56549390Y-44323448D01*
X56726222Y-44650493D01*
X56769401Y-44714509D01*
X56811687Y-44779129D01*
X56819206Y-44788348D01*
X57056195Y-45074817D01*
X57110971Y-45129213D01*
X57165016Y-45184401D01*
X57174182Y-45191984D01*
X57462299Y-45426967D01*
X57526595Y-45469685D01*
X57590335Y-45513329D01*
X57600800Y-45518987D01*
X57929072Y-45693532D01*
X58000486Y-45722967D01*
X58071441Y-45753378D01*
X58082803Y-45756895D01*
X58082807Y-45756897D01*
X58082811Y-45756898D01*
X58438727Y-45864356D01*
X58514499Y-45879360D01*
X58590013Y-45895410D01*
X58601840Y-45896654D01*
X58601844Y-45896654D01*
X58971860Y-45932934D01*
X58971865Y-45932934D01*
X59013148Y-45937000D01*
X59648329Y-45937000D01*
X59893735Y-45961062D01*
X60089710Y-46020231D01*
X60270461Y-46116337D01*
X60429101Y-46245721D01*
X60559589Y-46403454D01*
X60656955Y-46583529D01*
X60717490Y-46779086D01*
X60743000Y-47021795D01*
X60743001Y-59655025D01*
X60674865Y-60483785D01*
X60480834Y-61256253D01*
X60163246Y-61986654D01*
X59730628Y-62655380D01*
X59194598Y-63244470D01*
X58569553Y-63738102D01*
X57872276Y-64123019D01*
X57121502Y-64388883D01*
X56322656Y-64531179D01*
X55859926Y-64553000D01*
X3216671Y-64553000D01*
X2724585Y-64504751D01*
X2291331Y-64373944D01*
X1891734Y-64161474D01*
X1541014Y-63875434D01*
X1252534Y-63526721D01*
X1037279Y-63128617D01*
X903450Y-62696282D01*
X852000Y-62206777D01*
X852000Y-3216671D01*
X900249Y-2724585D01*
X1031056Y-2291331D01*
X1243526Y-1891734D01*
X1529568Y-1541012D01*
X1878279Y-1252534D01*
X2276383Y-1037279D01*
X2708714Y-903450D01*
X3198215Y-852000D01*
X24929892Y-852000D01*
X24040865Y-1741028D01*
G37*
%TD.AperFunction*%
D21*
X54803001Y-3621109D02*
X54803001Y-5936340D01*
X54324425Y-5457765D01*
X54282870Y-5407130D01*
X54080808Y-5241302D01*
X53850278Y-5118081D01*
X53600137Y-5042201D01*
X53405184Y-5023000D01*
X53405174Y-5023000D01*
X53340000Y-5016581D01*
X53274826Y-5023000D01*
X50397161Y-5023000D01*
X48291925Y-2917765D01*
X48250370Y-2867130D01*
X48048308Y-2701302D01*
X47817778Y-2578081D01*
X47567637Y-2502201D01*
X47372684Y-2483000D01*
X47372674Y-2483000D01*
X47307500Y-2476581D01*
X47242326Y-2483000D01*
X35845689Y-2483000D01*
X35742606Y-2357394D01*
X35729941Y-2347000D01*
X53528893Y-2347000D01*
X54803001Y-3621109D01*
%TA.AperFunction,Conductor*%
D22*
G36*
X54803001Y-3621109D02*
G01*
X54803001Y-5936340D01*
X54324425Y-5457765D01*
X54282870Y-5407130D01*
X54080808Y-5241302D01*
X53850278Y-5118081D01*
X53600137Y-5042201D01*
X53405184Y-5023000D01*
X53405174Y-5023000D01*
X53340000Y-5016581D01*
X53274826Y-5023000D01*
X50397161Y-5023000D01*
X48291925Y-2917765D01*
X48250370Y-2867130D01*
X48048308Y-2701302D01*
X47817778Y-2578081D01*
X47567637Y-2502201D01*
X47372684Y-2483000D01*
X47372674Y-2483000D01*
X47307500Y-2476581D01*
X47242326Y-2483000D01*
X35845689Y-2483000D01*
X35742606Y-2357394D01*
X35729941Y-2347000D01*
X53528893Y-2347000D01*
X54803001Y-3621109D01*
G37*
%TD.AperFunction*%
%TD*%
M02*
