M48
; DRILL file {KiCad (5.1.7-0-10_14)} date Thursday, December 03, 2020 at 11:58:36 PM
; FORMAT={-:-/ absolute / metric / decimal}
; #@! TF.CreationDate,2020-12-03T23:58:36+01:00
; #@! TF.GenerationSoftware,Kicad,Pcbnew,(5.1.7-0-10_14)
FMAT,2
METRIC
T1C1.000
T2C1.100
T3C1.520
T4C2.750
%
G90
G05
T1
X51.435Y-8.71
X51.435Y-11.25
X51.435Y-13.79
X51.435Y-16.33
X51.435Y-18.87
X51.435Y-21.41
X51.435Y-23.95
X51.435Y-26.49
X51.435Y-29.03
X51.435Y-31.57
X51.435Y-34.11
X51.435Y-36.65
X51.435Y-39.19
X51.435Y-41.73
X51.435Y-44.27
X51.435Y-46.81
X51.435Y-49.35
X51.435Y-51.89
X51.435Y-54.43
X51.435Y-56.97
X53.975Y-8.71
X53.975Y-11.25
X53.975Y-13.79
X53.975Y-16.33
X53.975Y-18.87
X53.975Y-21.41
X53.975Y-23.95
X53.975Y-26.49
X53.975Y-29.03
X53.975Y-31.57
X53.975Y-34.11
X53.975Y-36.65
X53.975Y-39.19
X53.975Y-41.73
X53.975Y-44.27
X53.975Y-46.81
X53.975Y-49.35
X53.975Y-51.89
X53.975Y-54.43
X53.975Y-56.97
X21.59Y-15.24
X24.13Y-15.24
X26.67Y-15.24
X29.21Y-15.24
X44.45Y-7.62
X44.45Y-10.16
X44.45Y-12.7
X44.45Y-15.24
X58.42Y-49.53
X58.42Y-52.07
X58.42Y-54.61
X58.42Y-57.15
X40.64Y-7.62
X40.64Y-10.16
X40.64Y-12.7
X40.64Y-15.24
X43.815Y-21.59
X43.815Y-24.13
X43.815Y-26.67
X43.815Y-29.21
X43.815Y-31.75
X43.815Y-34.29
X43.815Y-36.83
X43.815Y-39.37
T2
X23.495Y-55.245
X23.495Y-57.785
X23.495Y-60.325
X23.495Y-22.86
X23.495Y-25.4
X23.495Y-27.94
X23.495Y-44.45
X23.495Y-46.99
X23.495Y-49.53
X23.495Y-33.655
X23.495Y-36.195
X23.495Y-38.735
T3
X29.845Y-19.685
X29.845Y-30.48
X29.845Y-41.275
X30.48Y-50.8
X30.48Y-59.69
X28.575Y-4.445
X33.655Y-4.445
X12.065Y-31.115
X12.065Y-36.195
X12.065Y-41.275
X12.065Y-46.355
X15.875Y-4.445
X20.955Y-4.445
X12.065Y-13.97
X12.065Y-19.05
T4
X3.705Y-3.81
X3.705Y-61.81
X52.705Y-3.81
X52.705Y-61.81
T0
M30
